<?xml version="1.0" encoding="utf-8"?>
<!-- Generator: Adobe Illustrator 19.2.1, SVG Export Plug-In . SVG Version: 6.00 Build 0)  -->
<svg version="1.1" id="Layer_1" xmlns="http://www.w3.org/2000/svg" xmlns:xlink="http://www.w3.org/1999/xlink" x="0px" y="0px"
	 viewBox="0 0 186.5 158" style="enable-background:new 0 0 186.5 158;" xml:space="preserve">
<style type="text/css">
	.st0{fill:none;stroke:#C6986B;stroke-width:1.3209;stroke-linecap:round;stroke-linejoin:round;stroke-miterlimit:10;}
	.st1{fill:#FFFFFF;}
	.st2{fill:none;stroke:#C6986B;stroke-width:1.6746;stroke-linecap:round;stroke-linejoin:round;stroke-miterlimit:10;}
</style>
<g>
	<g>
		<g>
			<path class="st0" d="M90,118.5c-11.2,11.9-30.2,18.7-49.1,19.4c-5.3,0.2-10-0.2-14-1.8c0,0-21-7-15.3-26.1
				c1.5-5.1,6.9-7.7,12.4-7.7c7.1,0,11.8,4.6,11.8,10.7c0,10.5-9.5,10.3-9.5,15.3c0,3.6,5.3,6.4,13.6,7.1
				C58.8,136.7,75.8,112,76.7,91c0.4-10.3-4.9-14.4-13-14.4c-11.3,0-15.9,9.2-22.6,9.2c-4.8,0-6.2-3.3-6.1-7.7
				c7.5-3.3,17.9-3.3,26.9-6.9c12.6-5.2,23.5-15.1,23.5-32.3c0-10-4.8-14.8-14.3-14.8c-13.8,0-23.5,12.6-23.5,22.8
				c0,4.8,2.5,7.5,6.1,7.5c4.1,0,8.7-3.3,12.8-12.1l2,0.3C63.6,56.9,54.7,63,44.5,63c-9,0-14.1-5.1-14.1-12.6
				c0-17.2,19.7-28.7,40.8-28.7c20.2,0,34.8,7.1,34.8,20.7c0,20.3-29.9,25.6-51.2,34c5.2-2,10.7-3,17.2-3c9.2,0,18,2.4,23.2,8.1"/>
			<path class="st0" d="M98.3,96.8c0-11.6,18.1-18.9,32.4-25.7c16.3-7.8,26.3-16.1,26.3-30.8c0-7.1-3.6-12-11.8-12
				c-11.8,0-20.6,10.4-20.6,21.4c0,4.6,1.7,7.2,5.3,7.2c3.8,0,6.8-3.2,9.3-10.9l1.8,0.4c-3.3,11.8-10,17.8-19.2,17.8
				c-7.5,0-11.8-4.9-11.8-12.1c0-15.2,16.6-26,35.2-26c15,0,28.8,6.1,28.8,18.8c0,17.4-17.5,22.7-40.5,29.2
				c-11.6,3.2-24.2,8.6-29.5,14.9l0.1,0.1c2.9-3.3,9.3-6.1,17.8-6.1c10.4,0,24.4,3.2,33.3,3.2c7,0,9.5-2.5,9.5-7.5
				c0-1.7-0.4-3.2-1.3-5.1L165,73c1.5,3.1,2.8,7.1,2.8,11.3c0,4.2-1.1,8.3-3.3,11.7 M131.3,97.3c-6.7-4.5-12.4-9.6-18.6-9.6
				c-3.6,0-5.7,2.1-5.7,5.7c0,1,0.1,2.1,0.4,3.3"/>
		</g>
	</g>
	<g>
		<g>
			<path class="st1" d="M104.8,114.9v6.3h-3.9v-6.3l-6-10.3h3.4c0.3,0,0.6,0.1,0.8,0.2c0.2,0.2,0.4,0.4,0.5,0.6l2.3,4.8
				c0.2,0.4,0.4,0.7,0.5,1.1c0.2,0.3,0.3,0.7,0.4,1c0.1-0.3,0.3-0.7,0.4-1c0.2-0.3,0.3-0.7,0.5-1.1l2.3-4.8c0-0.1,0.1-0.2,0.2-0.3
				c0.1-0.1,0.2-0.2,0.3-0.3c0.1-0.1,0.2-0.1,0.4-0.2c0.1,0,0.3-0.1,0.4-0.1h3.4L104.8,114.9z"/>
			<path class="st1" d="M124.9,104.6v3h-6.8v3.9h5.2v2.9h-5.2v4h6.8v3h-10.7v-16.6H124.9z"/>
			<path class="st1" d="M144.8,121.2h-3c-0.3,0-0.6-0.1-0.8-0.2c-0.2-0.2-0.4-0.4-0.5-0.6l-1-2.9h-6.3l-1,2.9
				c-0.1,0.2-0.2,0.4-0.4,0.6c-0.2,0.2-0.5,0.3-0.8,0.3h-3l6.4-16.6h3.9L144.8,121.2z M134.1,114.9h4.5l-1.5-4.5
				c-0.1-0.3-0.2-0.6-0.3-1s-0.3-0.8-0.4-1.3c-0.1,0.5-0.2,0.9-0.4,1.3c-0.1,0.4-0.3,0.7-0.4,1L134.1,114.9z"/>
			<path class="st1" d="M152.3,115.1v6.1h-3.9v-16.6h5.4c1.2,0,2.2,0.1,3.1,0.4c0.8,0.2,1.5,0.6,2.1,1c0.5,0.4,0.9,1,1.2,1.6
				c0.2,0.6,0.4,1.3,0.4,2c0,0.5-0.1,1-0.2,1.5c-0.1,0.5-0.4,0.9-0.6,1.3c-0.3,0.4-0.6,0.8-1,1.1c-0.4,0.3-0.9,0.6-1.4,0.8
				c0.3,0.1,0.5,0.3,0.7,0.5s0.4,0.4,0.6,0.7l3.5,5.8h-3.5c-0.6,0-1.1-0.2-1.4-0.7l-2.8-4.8c-0.1-0.2-0.3-0.4-0.4-0.5
				c-0.2-0.1-0.4-0.1-0.7-0.1H152.3z M152.3,112.4h1.6c0.5,0,1-0.1,1.3-0.2c0.4-0.1,0.7-0.3,0.9-0.6c0.2-0.2,0.4-0.5,0.5-0.8
				c0.1-0.3,0.2-0.7,0.2-1c0-0.7-0.2-1.3-0.7-1.7s-1.2-0.6-2.2-0.6h-1.6V112.4z"/>
			<path class="st1" d="M175.1,108c-0.1,0.2-0.2,0.3-0.4,0.4c-0.1,0.1-0.3,0.1-0.5,0.1c-0.2,0-0.4-0.1-0.6-0.2
				c-0.2-0.1-0.4-0.2-0.7-0.4c-0.3-0.1-0.5-0.3-0.9-0.4c-0.3-0.1-0.7-0.2-1.1-0.2c-0.7,0-1.3,0.2-1.6,0.5s-0.5,0.7-0.5,1.2
				c0,0.3,0.1,0.6,0.3,0.8c0.2,0.2,0.5,0.4,0.8,0.6c0.3,0.2,0.7,0.3,1.2,0.4c0.4,0.1,0.9,0.3,1.4,0.4c0.5,0.2,0.9,0.4,1.4,0.6
				c0.4,0.2,0.8,0.5,1.2,0.8c0.3,0.3,0.6,0.8,0.8,1.2c0.2,0.5,0.3,1.1,0.3,1.8c0,0.8-0.1,1.5-0.4,2.2c-0.3,0.7-0.7,1.3-1.2,1.8
				c-0.5,0.5-1.1,0.9-1.9,1.2c-0.7,0.3-1.6,0.4-2.5,0.4c-0.5,0-1-0.1-1.6-0.2c-0.5-0.1-1.1-0.3-1.6-0.5c-0.5-0.2-1-0.4-1.4-0.7
				c-0.4-0.3-0.8-0.6-1.2-0.9l1.1-1.8c0.1-0.1,0.2-0.2,0.4-0.3c0.2-0.1,0.3-0.1,0.5-0.1c0.2,0,0.5,0.1,0.7,0.2
				c0.2,0.1,0.5,0.3,0.8,0.5c0.3,0.2,0.6,0.3,1,0.5c0.4,0.1,0.8,0.2,1.3,0.2c0.7,0,1.2-0.2,1.6-0.5c0.4-0.3,0.6-0.8,0.6-1.5
				c0-0.4-0.1-0.7-0.3-0.9c-0.2-0.2-0.5-0.4-0.8-0.6c-0.3-0.2-0.7-0.3-1.2-0.4c-0.4-0.1-0.9-0.3-1.4-0.4c-0.5-0.1-0.9-0.3-1.4-0.5
				c-0.4-0.2-0.8-0.5-1.2-0.9c-0.3-0.4-0.6-0.8-0.8-1.3c-0.2-0.5-0.3-1.2-0.3-2c0-0.6,0.1-1.2,0.4-1.8c0.3-0.6,0.6-1.1,1.1-1.6
				c0.5-0.5,1.1-0.8,1.8-1.1c0.7-0.3,1.5-0.4,2.4-0.4c0.5,0,1,0,1.5,0.1c0.5,0.1,0.9,0.2,1.4,0.4c0.4,0.2,0.8,0.3,1.2,0.6
				c0.4,0.2,0.7,0.5,1,0.7L175.1,108z"/>
		</g>
	</g>
	<path class="st2" d="M53,19.1"/>
	<path class="st2" d="M24.8,62.5"/>
	<path class="st2" d="M141,132.5c-11,7.9-24.5,12.6-39,12.6c-9.6,0-18.6-2-26.9-5.6"/>
	<path class="st0" d="M88.5,12.7c4.3-0.9,8.9-1.4,13.5-1.4c8.9,0,17.5,1.8,25.2,4.9"/>
	<path class="st0" d="M83.4,22.9"/>
</g>
</svg>
