<?xml version="1.0" encoding="utf-8"?>
<!-- Generator: Adobe Illustrator 19.2.1, SVG Export Plug-In . SVG Version: 6.00 Build 0)  -->
<svg version="1.1" id="Layer_1" xmlns="http://www.w3.org/2000/svg" xmlns:xlink="http://www.w3.org/1999/xlink" x="0px" y="0px"
	 viewBox="0 0 299.3 242.8" style="enable-background:new 0 0 299.3 242.8;" xml:space="preserve">
<style type="text/css">
	.st0{fill:none;stroke:#C6986B;stroke-width:2;stroke-linecap:round;stroke-linejoin:round;stroke-miterlimit:10;}
	.st1{fill:#FFFFFF;}
</style>
<g>
	<g>
		<g>
			<path class="st0" d="M144.1,191c-19.3,20.6-52.1,32.3-84.7,33.5c-9.1,0.3-17.2-0.4-24.1-3c0,0-36.2-12-26.4-45.1
				c2.6-8.8,11.9-13.3,21.3-13.3c12.2,0,20.4,7.9,20.4,18.4c0,18.1-16.4,17.8-16.4,26.3c0,6.2,9.1,11.1,23.5,12.2
				c32.5,2.4,62-40.3,63.4-76.4c0.7-17.8-8.5-24.9-22.4-24.9c-19.5,0-27.5,15.9-39.1,15.9c-8.2,0-10.8-5.7-10.5-13.3
				c13-5.7,30.9-5.7,46.4-11.9c21.8-9.1,40.5-26,40.5-55.8c0-17.3-8.2-25.5-24.6-25.5C87.7,28,71,49.8,71,67.4c0,8.2,4.2,13,10.5,13
				c7.1,0,15-5.7,22.1-21L107,60c-8.5,24.6-23.8,35.1-41.3,35.1c-15.6,0-24.4-8.8-24.4-21.8c0-29.7,34-49.6,70.5-49.6
				c34.8,0,60,12.2,60,35.7c0,35.1-51.5,44.2-88.3,58.6c9.1-3.4,18.4-5.1,29.7-5.1c15.9,0,31.1,4.2,40,14"/>
			<path class="st0" d="M158.5,153.5c0-19.9,31.2-32.7,56-44.4c28.1-13.5,45.4-27.9,45.4-53.1c0-12.2-6.2-20.7-20.4-20.7
				c-20.4,0-35.5,18-35.5,37c0,7.9,2.9,12.5,9.1,12.5c6.5,0,11.8-5.5,16.1-18.7l3.1,0.7c-5.8,20.4-17.3,30.7-33.1,30.7
				c-13,0-20.4-8.4-20.4-20.9c0-26.2,28.6-44.9,60.8-44.9c25.9,0,49.7,10.6,49.7,32.4c0,30-30.3,39.2-69.9,50.4
				c-19.9,5.5-41.8,14.9-50.9,25.7l0.2,0.2c5-5.8,16.1-10.6,30.7-10.6c18,0,42,5.5,57.4,5.5c12,0,16.3-4.3,16.3-13
				c0-2.9-0.7-5.5-2.2-8.9l2.6-1.2c2.6,5.3,4.8,12.2,4.8,19.5c0,7.2-1.8,14.4-5.7,20.2 M215.4,154.3c-11.5-7.7-21.5-16.6-32.1-16.6
				c-6.2,0-9.8,3.6-9.8,9.8c0,1.8,0.2,3.7,0.7,5.6"/>
		</g>
	</g>
	<g>
		<g>
			<path class="st1" d="M169.6,184.7v10.9h-6.7v-10.9l-10.4-17.8h5.9c0.6,0,1,0.1,1.4,0.4c0.3,0.3,0.6,0.6,0.8,1l4.1,8.3
				c0.3,0.7,0.6,1.3,0.9,1.8c0.3,0.6,0.5,1.1,0.7,1.7c0.2-0.6,0.4-1.1,0.7-1.7c0.3-0.6,0.6-1.2,0.9-1.8l4-8.3
				c0.1-0.2,0.2-0.3,0.3-0.5c0.1-0.2,0.3-0.3,0.5-0.5c0.2-0.1,0.4-0.2,0.6-0.3s0.5-0.1,0.8-0.1h5.9L169.6,184.7z"/>
			<path class="st1" d="M204.3,166.9v5.1h-11.8v6.7h9v4.9h-9v6.8h11.8v5.1h-18.5v-28.7H204.3z"/>
			<path class="st1" d="M238.7,195.6h-5.2c-0.6,0-1.1-0.1-1.4-0.4c-0.4-0.3-0.6-0.6-0.8-1l-1.7-5h-10.9l-1.7,5
				c-0.1,0.4-0.4,0.7-0.8,1c-0.4,0.3-0.8,0.4-1.4,0.4h-5.2l11.1-28.7h6.8L238.7,195.6z M220.3,184.6h7.8l-2.6-7.9
				c-0.2-0.5-0.4-1.1-0.6-1.8s-0.5-1.4-0.7-2.2c-0.2,0.8-0.4,1.5-0.6,2.2c-0.2,0.7-0.4,1.3-0.6,1.8L220.3,184.6z"/>
			<path class="st1" d="M251.6,185v10.6H245v-28.7h9.3c2.1,0,3.8,0.2,5.3,0.6c1.5,0.4,2.7,1,3.6,1.8c0.9,0.8,1.6,1.7,2,2.7
				c0.4,1,0.6,2.2,0.6,3.4c0,0.9-0.1,1.8-0.4,2.6c-0.2,0.8-0.6,1.6-1.1,2.3c-0.5,0.7-1.1,1.3-1.8,1.9c-0.7,0.6-1.5,1-2.5,1.4
				c0.4,0.2,0.9,0.5,1.2,0.8c0.4,0.3,0.7,0.7,1,1.2l6.1,10h-6c-1.1,0-1.9-0.4-2.4-1.3l-4.8-8.3c-0.2-0.4-0.5-0.6-0.7-0.8
				c-0.3-0.2-0.7-0.2-1.2-0.2H251.6z M251.6,180.4h2.7c0.9,0,1.7-0.1,2.3-0.3c0.6-0.2,1.2-0.5,1.6-1c0.4-0.4,0.7-0.9,0.9-1.4
				c0.2-0.5,0.3-1.1,0.3-1.8c0-1.3-0.4-2.2-1.2-3c-0.8-0.7-2.1-1.1-3.8-1.1h-2.7V180.4z"/>
			<path class="st1" d="M291.1,172.8c-0.2,0.3-0.4,0.6-0.6,0.7c-0.2,0.2-0.5,0.2-0.8,0.2c-0.3,0-0.6-0.1-1-0.3
				c-0.3-0.2-0.7-0.4-1.2-0.6c-0.4-0.2-0.9-0.4-1.5-0.6c-0.6-0.2-1.2-0.3-1.9-0.3c-1.2,0-2.2,0.3-2.8,0.8c-0.6,0.5-0.9,1.2-0.9,2.2
				c0,0.6,0.2,1.1,0.6,1.4c0.4,0.4,0.8,0.7,1.4,1c0.6,0.3,1.3,0.5,2,0.8c0.8,0.2,1.6,0.5,2.4,0.8c0.8,0.3,1.6,0.6,2.4,1
				c0.8,0.4,1.4,0.9,2,1.5c0.6,0.6,1.1,1.3,1.4,2.2c0.4,0.8,0.6,1.9,0.6,3.1c0,1.3-0.2,2.6-0.7,3.7c-0.5,1.2-1.1,2.2-2,3
				c-0.9,0.9-1.9,1.5-3.2,2c-1.3,0.5-2.7,0.7-4.4,0.7c-0.9,0-1.8-0.1-2.7-0.3c-0.9-0.2-1.8-0.4-2.7-0.8c-0.9-0.3-1.7-0.7-2.4-1.2
				c-0.8-0.5-1.4-1-2-1.5l2-3.1c0.1-0.2,0.3-0.4,0.6-0.6c0.3-0.1,0.5-0.2,0.8-0.2c0.4,0,0.8,0.1,1.2,0.4c0.4,0.2,0.9,0.5,1.4,0.8
				c0.5,0.3,1.1,0.6,1.7,0.8c0.7,0.2,1.4,0.4,2.3,0.4c1.2,0,2.1-0.3,2.8-0.8c0.7-0.5,1-1.4,1-2.5c0-0.7-0.2-1.2-0.6-1.6
				c-0.4-0.4-0.8-0.8-1.4-1c-0.6-0.3-1.3-0.5-2-0.7c-0.8-0.2-1.5-0.4-2.3-0.7c-0.8-0.3-1.6-0.6-2.3-0.9c-0.8-0.4-1.4-0.9-2-1.5
				c-0.6-0.6-1.1-1.4-1.4-2.3c-0.4-0.9-0.6-2-0.6-3.4c0-1.1,0.2-2.1,0.6-3.1c0.4-1,1.1-1.9,1.9-2.7c0.8-0.8,1.9-1.4,3.1-1.9
				c1.2-0.5,2.6-0.7,4.2-0.7c0.9,0,1.7,0.1,2.6,0.2c0.8,0.1,1.6,0.3,2.4,0.6c0.7,0.3,1.4,0.6,2.1,1c0.6,0.4,1.2,0.8,1.7,1.3
				L291.1,172.8z"/>
		</g>
	</g>
	<path class="st0" d="M232.1,215.1c-19,13.7-42.2,21.7-67.4,21.7c-16.5,0-32.2-3.5-46.3-9.7"/>
	<path class="st0" d="M141.5,8.3C149,6.8,156.8,6,164.8,6c15.4,0,30.1,3,43.6,8.5"/>
</g>
</svg>
