<svg id="Layer_1" data-name="Layer 1" xmlns="http://www.w3.org/2000/svg" xmlns:xlink="http://www.w3.org/1999/xlink" width="177" height="108" viewBox="0 0 177 108"><defs><style>.cls-1{fill:#222d40;}.cls-2,.cls-3,.cls-4{fill:none;stroke-miterlimit:10;stroke-width:3px;}.cls-2{stroke:url(#radial-gradient);}.cls-3{stroke:#fff;opacity:0.4;}.cls-4{stroke:#222d40;}</style><radialGradient id="radial-gradient" cx="88.5" cy="54" r="73.31" gradientUnits="userSpaceOnUse"><stop offset="0" stop-color="#222d40"/><stop offset="0.36" stop-color="#233046"/><stop offset="1" stop-color="#24334a"/></radialGradient></defs><title>broj</title><path class="cls-1" d="M65.52,48.21h4.06V35.33q0-.58,0-1.17L66.24,37a0.89,0.89,0,0,1-.26.15,0.75,0.75,0,0,1-.25,0,0.73,0.73,0,0,1-.36-0.09,0.65,0.65,0,0,1-.24-0.2l-0.74-1L70,31.07h1.91V48.21h3.72V50H65.52V48.21Z"/><path class="cls-1" d="M79.08,41.37H89.63v1.71H79.08V41.37Z"/><path class="cls-1" d="M95.47,48.21h4.06V35.33q0-.58,0-1.17L96.19,37a0.89,0.89,0,0,1-.26.15,0.75,0.75,0,0,1-.25,0,0.73,0.73,0,0,1-.36-0.09,0.65,0.65,0,0,1-.24-0.2l-0.74-1L100,31.07h1.91V48.21h3.72V50H95.47V48.21Z"/><path class="cls-1" d="M114.9,30.9a6.89,6.89,0,0,1,2.24.36,5.18,5.18,0,0,1,1.8,1,4.84,4.84,0,0,1,1.19,1.65,5.38,5.38,0,0,1,.44,2.21,5.82,5.82,0,0,1-.32,2,7.94,7.94,0,0,1-.86,1.72,12.6,12.6,0,0,1-1.25,1.59q-0.71.77-1.5,1.58l-5,5.09a9.7,9.7,0,0,1,1.07-.23,6.6,6.6,0,0,1,1-.09h6.33a0.82,0.82,0,0,1,.61.22,0.78,0.78,0,0,1,.22.58V50h-12.6V49.2a1.47,1.47,0,0,1,.1-0.51,1.38,1.38,0,0,1,.32-0.49l6-6.08q0.75-.76,1.37-1.47a10.73,10.73,0,0,0,1.06-1.42,6.63,6.63,0,0,0,.68-1.44,5,5,0,0,0,.24-1.56,3.73,3.73,0,0,0-.26-1.46,2.81,2.81,0,0,0-.72-1,3.06,3.06,0,0,0-1.08-.61,4.24,4.24,0,0,0-1.33-.2,4,4,0,0,0-1.32.21,3.53,3.53,0,0,0-1.87,1.48,3.46,3.46,0,0,0-.46,1.13,1.05,1.05,0,0,1-.32.55,0.85,0.85,0,0,1-.55.17h-0.14l-0.16,0-1.23-.21a7,7,0,0,1,.71-2.29,5.46,5.46,0,0,1,1.34-1.67,5.7,5.7,0,0,1,1.86-1A7.08,7.08,0,0,1,114.9,30.9Z"/><path class="cls-1" d="M64.06,59.56H65.2a0.5,0.5,0,0,1,.29.08,0.41,0.41,0,0,1,.16.22l1.24,4.36c0,0.11.06,0.22,0.08,0.35s0,0.26.07,0.4c0-.14.06-0.27,0.09-0.4s0.07-.24.1-0.35l1.43-4.36a0.48,0.48,0,0,1,.16-0.21,0.44,0.44,0,0,1,.29-0.1h0.4a0.49,0.49,0,0,1,.29.08,0.43,0.43,0,0,1,.16.22l1.42,4.36a5.85,5.85,0,0,1,.19.72l0.07-.38c0-.12.05-0.23,0.08-0.34L73,59.87a0.41,0.41,0,0,1,.16-0.22,0.48,0.48,0,0,1,.29-0.09h1.06l-2.26,7.29H71l-1.59-5-0.06-.21c0-.07,0-0.15-0.06-0.24l-0.06.24-0.06.21-1.61,5H66.32Z"/><path class="cls-1" d="M82.51,66.85h-1a0.46,0.46,0,0,1-.29-0.09A0.5,0.5,0,0,1,81,66.54l-0.54-1.49h-3L76.9,66.54a0.48,0.48,0,0,1-.16.21,0.45,0.45,0,0,1-.29.1H75.39l2.86-7.29h1.39Zm-4.72-2.75h2.32l-0.89-2.42-0.13-.38c0-.15-0.1-0.3-0.14-0.48,0,0.17-.09.33-0.14,0.48s-0.09.28-.13,0.39Z"/><path class="cls-1" d="M89.06,59.56v1.11H86.87v6.17H85.52V60.67h-2.2V59.56h5.75Z"/><path class="cls-1" d="M96,65.13a0.25,0.25,0,0,1,.19.09l0.53,0.58a2.93,2.93,0,0,1-1.09.84,3.75,3.75,0,0,1-1.55.29,3.69,3.69,0,0,1-1.46-.28,3.24,3.24,0,0,1-1.11-.77,3.38,3.38,0,0,1-.7-1.18,4.42,4.42,0,0,1-.24-1.5,4,4,0,0,1,.27-1.5,3.39,3.39,0,0,1,1.95-1.95,4.05,4.05,0,0,1,1.52-.28,3.59,3.59,0,0,1,1.42.26,3.3,3.3,0,0,1,1,.69l-0.45.63a0.42,0.42,0,0,1-.1.11,0.29,0.29,0,0,1-.17,0,0.4,0.4,0,0,1-.24-0.09l-0.31-.2a2.6,2.6,0,0,0-2.14-.11,2.09,2.09,0,0,0-.74.51,2.35,2.35,0,0,0-.48.81,3.1,3.1,0,0,0-.17,1.07,3.19,3.19,0,0,0,.17,1.09,2.4,2.4,0,0,0,.47.81,2,2,0,0,0,.7.5,2.18,2.18,0,0,0,.87.17,3.88,3.88,0,0,0,.5,0,2.21,2.21,0,0,0,.41-0.1,1.88,1.88,0,0,0,.36-0.17,2.27,2.27,0,0,0,.33-0.25l0.11-.07A0.26,0.26,0,0,1,96,65.13Z"/><path class="cls-1" d="M105.27,66.85H103.9V63.66h-3.42v3.19H99.12V59.56h1.37v3.14h3.42V59.56h1.37v7.29Z"/><path class="cls-1" d="M112.75,59.56v1.08h-3.23v2h2.55v1h-2.55v2.06h3.23v1.08h-4.6V59.56h4.6Z"/><path class="cls-1" d="M119.24,60.88a0.38,0.38,0,0,1-.13.16,0.32,0.32,0,0,1-.17,0,0.44,0.44,0,0,1-.23-0.08l-0.3-.17a2.41,2.41,0,0,0-.4-0.17,1.66,1.66,0,0,0-.54-0.08,1.61,1.61,0,0,0-.49.07,1,1,0,0,0-.35.19,0.76,0.76,0,0,0-.21.29,1,1,0,0,0-.07.37,0.64,0.64,0,0,0,.14.43,1.19,1.19,0,0,0,.38.29,3.48,3.48,0,0,0,.54.22l0.62,0.2a5.82,5.82,0,0,1,.62.25,2.14,2.14,0,0,1,.54.36,1.64,1.64,0,0,1,.38.54,1.87,1.87,0,0,1,.14.77,2.52,2.52,0,0,1-.17.92,2.13,2.13,0,0,1-.49.75,2.31,2.31,0,0,1-.79.5,2.91,2.91,0,0,1-1.07.18,3.49,3.49,0,0,1-.69-0.07,3.66,3.66,0,0,1-.65-0.19,3.36,3.36,0,0,1-.58-0.3,2.81,2.81,0,0,1-.48-0.39l0.39-.65a0.5,0.5,0,0,1,.13-0.12,0.33,0.33,0,0,1,.17,0,0.48,0.48,0,0,1,.27.1l0.35,0.23a2.62,2.62,0,0,0,.47.23,1.8,1.8,0,0,0,.65.1,1.33,1.33,0,0,0,.9-0.27,1,1,0,0,0,.32-0.79,0.73,0.73,0,0,0-.14-0.47A1.17,1.17,0,0,0,117.9,64a2.91,2.91,0,0,0-.54-0.21l-0.62-.19a5.46,5.46,0,0,1-.62-0.24,2,2,0,0,1-.54-0.37,1.68,1.68,0,0,1-.38-0.57,2.16,2.16,0,0,1-.14-0.84,2,2,0,0,1,.62-1.45,2.3,2.3,0,0,1,.75-0.47,2.74,2.74,0,0,1,1-.18,3.39,3.39,0,0,1,1.19.2,2.69,2.69,0,0,1,.93.56Z"/><rect class="cls-2" x="1.5" y="1.5" width="174" height="105"/><line class="cls-3" x1="161" y1="89.5" x2="20" y2="89.5"/><line class="cls-4" x1="67" y1="89.5" x2="20" y2="89.5"/></svg>