<svg id="Layer_1" data-name="Layer 1" xmlns="http://www.w3.org/2000/svg" width="177" height="108" viewBox="0 0 177 108"><defs><style>.cls-1{fill:#c6986b;}.cls-2,.cls-3{fill:none;stroke:#c6986b;stroke-miterlimit:10;stroke-width:3px;}.cls-3{opacity:0.4;}</style></defs><title>broj</title><path class="cls-1" d="M57.87,48.21h4.06V35.33q0-.58,0-1.17L58.6,37a0.89,0.89,0,0,1-.26.15,0.75,0.75,0,0,1-.25,0,0.73,0.73,0,0,1-.36-0.09,0.65,0.65,0,0,1-.24-0.2l-0.74-1,5.62-4.86h1.91V48.21H68V50H57.87V48.21Z"/><path class="cls-1" d="M77.3,30.9a6.89,6.89,0,0,1,2.24.36,5.18,5.18,0,0,1,1.8,1,4.84,4.84,0,0,1,1.19,1.65A5.38,5.38,0,0,1,83,36.16a5.82,5.82,0,0,1-.32,2,7.94,7.94,0,0,1-.86,1.72,12.6,12.6,0,0,1-1.25,1.59q-0.71.77-1.5,1.58l-5,5.09a9.7,9.7,0,0,1,1.07-.23,6.6,6.6,0,0,1,1-.09h6.33a0.82,0.82,0,0,1,.61.22,0.78,0.78,0,0,1,.22.58V50H70.75V49.2a1.47,1.47,0,0,1,.1-0.51,1.38,1.38,0,0,1,.32-0.49l6-6.08q0.75-.76,1.37-1.47a10.73,10.73,0,0,0,1.06-1.42,6.63,6.63,0,0,0,.68-1.44,5,5,0,0,0,.24-1.56,3.73,3.73,0,0,0-.26-1.46,2.81,2.81,0,0,0-.72-1,3.06,3.06,0,0,0-1.08-.61,4.24,4.24,0,0,0-1.33-.2,4,4,0,0,0-1.32.21A3.53,3.53,0,0,0,74,34.6a3.46,3.46,0,0,0-.46,1.13,1.05,1.05,0,0,1-.32.55,0.85,0.85,0,0,1-.55.17H72.52l-0.16,0-1.23-.21a7,7,0,0,1,.71-2.29,5.46,5.46,0,0,1,1.34-1.67,5.7,5.7,0,0,1,1.86-1A7.08,7.08,0,0,1,77.3,30.9Z"/><path class="cls-1" d="M86.73,41.37H97.27v1.71H86.73V41.37Z"/><path class="cls-1" d="M107.5,30.9a6.88,6.88,0,0,1,2.21.34,5.15,5.15,0,0,1,1.75,1,4.41,4.41,0,0,1,1.14,1.53,4.74,4.74,0,0,1,.41,2,5.15,5.15,0,0,1-.23,1.6,3.83,3.83,0,0,1-1.69,2.14,5.77,5.77,0,0,1-1.36.59,5.13,5.13,0,0,1,2.78,1.63,4.41,4.41,0,0,1,.93,2.87,5.41,5.41,0,0,1-.49,2.35,5.27,5.27,0,0,1-1.35,1.77,6,6,0,0,1-2,1.12,7.53,7.53,0,0,1-2.44.39,7.77,7.77,0,0,1-2.57-.38,5.32,5.32,0,0,1-1.81-1,5.5,5.5,0,0,1-1.21-1.56,11.67,11.67,0,0,1-.8-2l1-.42a1.4,1.4,0,0,1,.55-0.12,1,1,0,0,1,.47.11,0.71,0.71,0,0,1,.31.35l0.05,0.11,0.05,0.13q0.18,0.38.45,0.86a3.66,3.66,0,0,0,.71.9,3.85,3.85,0,0,0,1.11.71,4.15,4.15,0,0,0,1.66.29,4.34,4.34,0,0,0,1.73-.32,3.78,3.78,0,0,0,1.24-.84,3.5,3.5,0,0,0,.75-1.15,3.38,3.38,0,0,0,.25-1.25,4.51,4.51,0,0,0-.2-1.4,2.4,2.4,0,0,0-.74-1.09,3.8,3.8,0,0,0-1.48-.73,9.2,9.2,0,0,0-2.42-.26V39.45a7.33,7.33,0,0,0,2-.25,4,4,0,0,0,1.39-.69,2.54,2.54,0,0,0,.78-1,3.58,3.58,0,0,0,.24-1.34,3.62,3.62,0,0,0-.26-1.42,2.73,2.73,0,0,0-.71-1,3,3,0,0,0-1.06-.59,4.3,4.3,0,0,0-1.33-.2,4,4,0,0,0-1.32.21,3.58,3.58,0,0,0-1.07.59,3.4,3.4,0,0,0-.78.9,4.18,4.18,0,0,0-.47,1.13,1,1,0,0,1-.32.55,0.83,0.83,0,0,1-.54.17h-0.14l-0.17,0-1.23-.21a7,7,0,0,1,.71-2.29,5.43,5.43,0,0,1,1.34-1.67,5.7,5.7,0,0,1,1.86-1A7.09,7.09,0,0,1,107.5,30.9Z"/><path class="cls-1" d="M123.19,38.43a6.15,6.15,0,0,1,2.15.38,5.11,5.11,0,0,1,3,2.86,6,6,0,0,1,.45,2.39,6.16,6.16,0,0,1-.47,2.43,5.93,5.93,0,0,1-1.32,2,6.12,6.12,0,0,1-2,1.3,7.11,7.11,0,0,1-2.64.47,7,7,0,0,1-2.58-.46,5.56,5.56,0,0,1-2-1.29,5.68,5.68,0,0,1-1.26-2,7.64,7.64,0,0,1-.44-2.67,7.17,7.17,0,0,1,.55-2.64,13.39,13.39,0,0,1,1.75-3l4.79-6.45a1.46,1.46,0,0,1,.51-0.4,1.65,1.65,0,0,1,.75-0.17h2.08l-6.55,8.29a5.55,5.55,0,0,1,1.49-.72A5.84,5.84,0,0,1,123.19,38.43Zm-4.88,5.75a5,5,0,0,0,.26,1.66,3.62,3.62,0,0,0,.77,1.29,3.46,3.46,0,0,0,1.24.84,4.41,4.41,0,0,0,1.67.3A4.61,4.61,0,0,0,124,48a3.87,3.87,0,0,0,1.31-.84,3.71,3.71,0,0,0,.84-1.28,4.27,4.27,0,0,0,.3-1.61,4.57,4.57,0,0,0-.29-1.67A3.47,3.47,0,0,0,124,40.5a4.58,4.58,0,0,0-1.62-.28,4.37,4.37,0,0,0-1.71.32,3.93,3.93,0,0,0-1.3.87,3.75,3.75,0,0,0-.82,1.27A4,4,0,0,0,118.31,44.17Z"/><path class="cls-1" d="M64.06,59.56H65.2a0.5,0.5,0,0,1,.29.08,0.41,0.41,0,0,1,.16.22l1.24,4.36c0,0.11.06,0.22,0.08,0.35s0,0.26.07,0.4c0-.14.06-0.27,0.09-0.4s0.07-.24.1-0.35l1.43-4.36a0.48,0.48,0,0,1,.16-0.21,0.44,0.44,0,0,1,.29-0.1h0.4a0.49,0.49,0,0,1,.29.08,0.43,0.43,0,0,1,.16.22l1.42,4.36a5.85,5.85,0,0,1,.19.72l0.07-.38c0-.12.05-0.23,0.08-0.34L73,59.87a0.41,0.41,0,0,1,.16-0.22,0.48,0.48,0,0,1,.29-0.09h1.06l-2.26,7.29H71l-1.59-5-0.06-.21c0-.07,0-0.15-0.06-0.24l-0.06.24-0.06.21-1.61,5H66.32Z"/><path class="cls-1" d="M82.51,66.85h-1a0.46,0.46,0,0,1-.29-0.09A0.5,0.5,0,0,1,81,66.54l-0.54-1.49h-3L76.9,66.54a0.48,0.48,0,0,1-.16.21,0.45,0.45,0,0,1-.29.1H75.39l2.86-7.29h1.39Zm-4.72-2.75h2.32l-0.89-2.42-0.13-.38c0-.15-0.1-0.3-0.14-0.48,0,0.17-.09.33-0.14,0.48s-0.09.28-.13,0.39Z"/><path class="cls-1" d="M89.06,59.56v1.11H86.87v6.17H85.52V60.67h-2.2V59.56h5.75Z"/><path class="cls-1" d="M96,65.13a0.25,0.25,0,0,1,.19.09l0.53,0.58a2.93,2.93,0,0,1-1.09.84,3.75,3.75,0,0,1-1.55.29,3.69,3.69,0,0,1-1.46-.28,3.24,3.24,0,0,1-1.11-.77,3.38,3.38,0,0,1-.7-1.18,4.42,4.42,0,0,1-.24-1.5,4,4,0,0,1,.27-1.5,3.39,3.39,0,0,1,1.95-1.95,4.05,4.05,0,0,1,1.52-.28,3.59,3.59,0,0,1,1.42.26,3.3,3.3,0,0,1,1,.69l-0.45.63a0.42,0.42,0,0,1-.1.11,0.29,0.29,0,0,1-.17,0,0.4,0.4,0,0,1-.24-0.09l-0.31-.2a2.6,2.6,0,0,0-2.14-.11,2.09,2.09,0,0,0-.74.51,2.35,2.35,0,0,0-.48.81,3.1,3.1,0,0,0-.17,1.07,3.19,3.19,0,0,0,.17,1.09,2.4,2.4,0,0,0,.47.81,2,2,0,0,0,.7.5,2.18,2.18,0,0,0,.87.17,3.88,3.88,0,0,0,.5,0,2.21,2.21,0,0,0,.41-0.1,1.88,1.88,0,0,0,.36-0.17,2.27,2.27,0,0,0,.33-0.25l0.11-.07A0.26,0.26,0,0,1,96,65.13Z"/><path class="cls-1" d="M105.27,66.85H103.9V63.66h-3.42v3.19H99.12V59.56h1.37v3.14h3.42V59.56h1.37v7.29Z"/><path class="cls-1" d="M112.75,59.56v1.08h-3.23v2h2.55v1h-2.55v2.06h3.23v1.08h-4.6V59.56h4.6Z"/><path class="cls-1" d="M119.24,60.88a0.38,0.38,0,0,1-.13.16,0.32,0.32,0,0,1-.17,0,0.44,0.44,0,0,1-.23-0.08l-0.3-.17a2.41,2.41,0,0,0-.4-0.17,1.66,1.66,0,0,0-.54-0.08,1.61,1.61,0,0,0-.49.07,1,1,0,0,0-.35.19,0.76,0.76,0,0,0-.21.29,1,1,0,0,0-.07.37,0.64,0.64,0,0,0,.14.43,1.19,1.19,0,0,0,.38.29,3.48,3.48,0,0,0,.54.22l0.62,0.2a5.82,5.82,0,0,1,.62.25,2.14,2.14,0,0,1,.54.36,1.64,1.64,0,0,1,.38.54,1.87,1.87,0,0,1,.14.77,2.52,2.52,0,0,1-.17.92,2.13,2.13,0,0,1-.49.75,2.31,2.31,0,0,1-.79.5,2.91,2.91,0,0,1-1.07.18,3.49,3.49,0,0,1-.69-0.07,3.66,3.66,0,0,1-.65-0.19,3.36,3.36,0,0,1-.58-0.3,2.81,2.81,0,0,1-.48-0.39l0.39-.65a0.5,0.5,0,0,1,.13-0.12,0.33,0.33,0,0,1,.17,0,0.48,0.48,0,0,1,.27.1l0.35,0.23a2.62,2.62,0,0,0,.47.23,1.8,1.8,0,0,0,.65.1,1.33,1.33,0,0,0,.9-0.27,1,1,0,0,0,.32-0.79,0.73,0.73,0,0,0-.14-0.47A1.17,1.17,0,0,0,117.9,64a2.91,2.91,0,0,0-.54-0.21l-0.62-.19a5.46,5.46,0,0,1-.62-0.24,2,2,0,0,1-.54-0.37,1.68,1.68,0,0,1-.38-0.57,2.16,2.16,0,0,1-.14-0.84,2,2,0,0,1,.62-1.45,2.3,2.3,0,0,1,.75-0.47,2.74,2.74,0,0,1,1-.18,3.39,3.39,0,0,1,1.19.2,2.69,2.69,0,0,1,.93.56Z"/><rect class="cls-2" x="1.5" y="1.5" width="174" height="105"/><line class="cls-3" x1="161" y1="89.5" x2="20" y2="89.5"/><line class="cls-2" x1="114" y1="89.5" x2="67" y2="89.5"/><line class="cls-2" x1="161" y1="89.5" x2="114" y2="89.5"/></svg>