<?xml version="1.0" encoding="utf-8"?>
<!-- Generator: Adobe Illustrator 19.2.1, SVG Export Plug-In . SVG Version: 6.00 Build 0)  -->
<svg version="1.1" id="Layer_1" xmlns="http://www.w3.org/2000/svg" xmlns:xlink="http://www.w3.org/1999/xlink" x="0px" y="0px"
	 viewBox="0 0 200 162" style="enable-background:new 0 0 200 162;" xml:space="preserve">
<style type="text/css">
	.st0{fill:none;stroke:url(#SVGID_1_);stroke-width:3;stroke-miterlimit:10;}
	.st1{fill:#222D40;}
</style>
<g>
	
		<radialGradient id="SVGID_1_" cx="100.5" cy="-388.6273" r="73.3788" gradientTransform="matrix(1 0 0 1.3095 0 590.4167)" gradientUnits="userSpaceOnUse">
		<stop  offset="0" style="stop-color:#222D40"/>
		<stop  offset="0.3678" style="stop-color:#233146"/>
		<stop  offset="1" style="stop-color:#24334A"/>
	</radialGradient>
	<rect x="13.5" y="12.5" class="st0" width="174" height="138"/>
	<g>
		<g>
			<g>
				<path class="st1" d="M76,59.5c1.8,0,3.5,0.3,5.1,0.8c1.6,0.5,3,1.3,4.3,2.3s2.2,2.3,2.9,3.8c0.7,1.5,1.1,3.2,1.1,5.2
					c0,1.5-0.2,2.9-0.7,4.2c-0.5,1.2-1.1,2.3-2,3.3c-0.8,0.9-1.8,1.7-3,2.4c-1.1,0.6-2.4,1.1-3.7,1.5c3.5,0.7,6.1,2,7.9,4.1
					c1.8,2.1,2.7,4.6,2.7,7.7c0,2-0.4,3.8-1.2,5.4c-0.8,1.7-1.9,3.1-3.2,4.3c-1.4,1.2-3,2.2-4.8,2.8c-1.9,0.7-3.9,1-6.1,1
					c-2.7,0-5-0.4-6.8-1.1c-1.8-0.7-3.3-1.7-4.5-2.8c-1.2-1.2-2.1-2.5-2.7-3.9c-0.7-1.4-1.2-2.9-1.6-4.3l1.3-0.5
					c0.3-0.1,0.5-0.2,0.8-0.2s0.5,0.1,0.7,0.2c0.2,0.1,0.4,0.3,0.5,0.6l0.2,0.7c0.1,0.4,0.3,0.9,0.6,1.5c0.2,0.6,0.6,1.2,1,1.8
					c0.4,0.6,0.9,1.3,1.5,1.9c0.6,0.6,1.3,1.2,2.1,1.7c0.8,0.5,1.8,0.9,3,1.2c1.1,0.3,2.4,0.5,3.9,0.5c2,0,3.8-0.3,5.3-1
					c1.5-0.7,2.8-1.5,3.8-2.6c1-1,1.8-2.2,2.3-3.5c0.5-1.3,0.8-2.5,0.8-3.8c0-1.5-0.2-2.8-0.7-4.1c-0.5-1.3-1.2-2.3-2.3-3.2
					s-2.5-1.6-4.3-2.2c-1.8-0.5-3.9-0.8-6.5-0.8v-2.3c2.1,0,3.9-0.3,5.4-0.8S82,80,83,79.2c1.1-0.9,1.8-1.9,2.4-3.1
					c0.5-1.2,0.8-2.5,0.8-4c0-1.7-0.3-3.1-0.8-4.4c-0.6-1.2-1.3-2.3-2.3-3.1c-0.9-0.8-2-1.4-3.3-1.8c-1.3-0.4-2.6-0.6-3.9-0.6
					c-1.5,0-2.9,0.2-4.1,0.7c-1.3,0.4-2.4,1.1-3.3,1.9c-1,0.8-1.8,1.8-2.4,2.9c-0.7,1.1-1.1,2.4-1.4,3.8c-0.2,0.8-0.6,1.2-1.2,1.2
					c-0.2,0-0.3,0-0.4,0l-1.6-0.3c0.3-2,0.9-3.9,1.7-5.4c0.8-1.6,1.9-2.9,3.2-4c1.3-1.1,2.8-1.9,4.4-2.5
					C72.3,59.8,74.1,59.5,76,59.5z"/>
				<path class="st1" d="M117.3,71.5c0,2-0.3,3.7-0.8,5.2c-0.5,1.5-1.3,2.7-2.2,3.7s-2,1.7-3.2,2.2c-1.2,0.5-2.5,0.8-3.8,0.8
					c-1.4,0-2.7-0.3-3.9-0.8c-1.2-0.5-2.3-1.2-3.2-2.2c-0.9-1-1.6-2.2-2.1-3.7c-0.5-1.5-0.8-3.2-0.8-5.2c0-2,0.3-3.7,0.8-5.2
					c0.5-1.5,1.2-2.8,2.1-3.7c0.9-1,2-1.7,3.2-2.3c1.2-0.5,2.5-0.8,3.9-0.8c1.4,0,2.7,0.3,3.9,0.8c1.2,0.5,2.3,1.3,3.2,2.3
					c0.9,1,1.6,2.2,2.2,3.7C117.1,67.8,117.3,69.5,117.3,71.5z M114.8,71.5c0-1.7-0.2-3.2-0.6-4.4c-0.4-1.2-0.9-2.2-1.6-3
					s-1.5-1.4-2.4-1.7s-1.9-0.6-2.9-0.6s-2,0.2-2.9,0.6c-0.9,0.4-1.7,1-2.4,1.7s-1.2,1.8-1.6,3c-0.4,1.2-0.6,2.7-0.6,4.4
					c0,1.7,0.2,3.2,0.6,4.4c0.4,1.2,0.9,2.2,1.6,3c0.7,0.8,1.5,1.4,2.4,1.7c0.9,0.4,1.8,0.6,2.9,0.6s2-0.2,2.9-0.6
					c0.9-0.4,1.7-0.9,2.4-1.7c0.7-0.8,1.2-1.8,1.6-3S114.8,73.2,114.8,71.5z M135.4,60.7c0.1-0.2,0.3-0.3,0.5-0.4
					c0.2-0.1,0.4-0.2,0.8-0.2h2.3l-34.2,47c-0.3,0.4-0.7,0.6-1.2,0.6h-2.3L135.4,60.7z M143,96.3c0,2-0.3,3.7-0.8,5.2
					s-1.3,2.7-2.2,3.7c-0.9,1-2,1.7-3.2,2.2c-1.2,0.5-2.5,0.8-3.8,0.8c-1.4,0-2.7-0.3-3.9-0.8c-1.2-0.5-2.3-1.2-3.2-2.2
					c-0.9-1-1.6-2.2-2.1-3.7c-0.5-1.5-0.8-3.2-0.8-5.2c0-2,0.3-3.7,0.8-5.2c0.5-1.5,1.2-2.8,2.1-3.8c0.9-1,2-1.7,3.2-2.3
					c1.2-0.5,2.5-0.8,3.9-0.8c1.4,0,2.7,0.3,3.9,0.8c1.2,0.5,2.3,1.3,3.2,2.3c0.9,1,1.6,2.2,2.1,3.8C142.8,92.6,143,94.4,143,96.3z
					 M140.5,96.3c0-1.7-0.2-3.2-0.6-4.5c-0.4-1.2-0.9-2.3-1.6-3.1s-1.5-1.4-2.4-1.7s-1.9-0.6-2.9-0.6s-2,0.2-2.9,0.6s-1.7,1-2.4,1.7
					c-0.7,0.8-1.2,1.8-1.6,3.1c-0.4,1.2-0.6,2.7-0.6,4.5s0.2,3.2,0.6,4.4c0.4,1.2,0.9,2.2,1.6,3c0.7,0.8,1.5,1.4,2.4,1.7
					s1.9,0.5,2.9,0.5s2-0.2,2.9-0.5s1.7-0.9,2.4-1.7c0.7-0.8,1.2-1.8,1.6-3C140.3,99.5,140.5,98.1,140.5,96.3z"/>
			</g>
		</g>
	</g>
</g>
</svg>
