<svg id="Layer_1" data-name="Layer 1" xmlns="http://www.w3.org/2000/svg" width="185" height="128" viewBox="0 0 185 128"><defs><style>.cls-1{fill:#c6986b;}.cls-2,.cls-3,.cls-4{fill:none;stroke-miterlimit:10;stroke-width:3px;}.cls-2,.cls-3{stroke:#c6986b;}.cls-3{opacity:0.4;}.cls-4{stroke:#fff;}</style></defs><title>broj</title><path class="cls-1" d="M73,54.19h3.28v1.54a0.6,0.6,0,0,1-.14.41,0.56,0.56,0,0,1-.45.17H73V62H70.59V56.31H61a0.81,0.81,0,0,1-.52-0.17,0.76,0.76,0,0,1-.28-0.43l-0.27-1.37,10.53-14H73V54.19Zm-2.37-8.93q0-.39,0-0.85a9,9,0,0,1,.1-0.94L62.84,54.19h7.75V45.27Z"/><path class="cls-1" d="M79.2,52.11H91.28v2H79.2v-2Z"/><path class="cls-1" d="M102.71,40.12a7.9,7.9,0,0,1,2.57.41,5.91,5.91,0,0,1,2.06,1.19,5.53,5.53,0,0,1,1.37,1.9,6.17,6.17,0,0,1,.5,2.54,6.66,6.66,0,0,1-.36,2.24,9.12,9.12,0,0,1-1,2,14.49,14.49,0,0,1-1.43,1.83q-0.81.88-1.71,1.8L99,59.81a11.37,11.37,0,0,1,1.22-.26,7.63,7.63,0,0,1,1.19-.1h7.25a0.94,0.94,0,0,1,.7.26,0.9,0.9,0,0,1,.26.67V62H95.21V61.08a1.66,1.66,0,0,1,.11-0.59,1.56,1.56,0,0,1,.37-0.56l6.93-7q0.86-.88,1.57-1.68a12.38,12.38,0,0,0,1.22-1.62,7.57,7.57,0,0,0,.78-1.65,5.75,5.75,0,0,0,.27-1.79,4.27,4.27,0,0,0-.3-1.67,3.24,3.24,0,0,0-.83-1.19,3.51,3.51,0,0,0-1.24-.7,4.86,4.86,0,0,0-1.53-.23,4.57,4.57,0,0,0-1.51.24,4,4,0,0,0-2.14,1.69,4,4,0,0,0-.52,1.3,1.21,1.21,0,0,1-.36.63,1,1,0,0,1-.63.2H97.24l-0.19,0-1.4-.24a8,8,0,0,1,.82-2.62A6.26,6.26,0,0,1,98,41.69a6.55,6.55,0,0,1,2.13-1.17A8.14,8.14,0,0,1,102.71,40.12Z"/><path class="cls-1" d="M124.79,54.19h3.28v1.54a0.6,0.6,0,0,1-.14.41,0.56,0.56,0,0,1-.45.17h-2.69V62h-2.37V56.31h-9.59a0.81,0.81,0,0,1-.52-0.17A0.76,0.76,0,0,1,112,55.7l-0.27-1.37,10.53-14h2.51V54.19Zm-2.37-8.93q0-.39,0-0.85a9,9,0,0,1,.1-0.94l-7.87,10.71h7.75V45.27Z"/><path class="cls-1" d="M62,72.65h1.3a0.57,0.57,0,0,1,.34.1,0.46,0.46,0,0,1,.18.26l1.42,5c0,0.12.07,0.26,0.1,0.4s0.06,0.3.08,0.46c0-.16.06-0.31,0.1-0.46s0.08-.28.12-0.4l1.64-5a0.55,0.55,0,0,1,.18-0.24,0.52,0.52,0,0,1,.33-0.11h0.46a0.56,0.56,0,0,1,.33.1,0.5,0.5,0,0,1,.18.26l1.63,5a6.74,6.74,0,0,1,.22.82l0.08-.43c0-.14.06-0.27,0.09-0.39l1.42-5a0.46,0.46,0,0,1,.18-0.25,0.54,0.54,0,0,1,.33-0.1h1.22L71.34,81h-1.4l-1.82-5.71L68,75.06c0-.08,0-0.17-0.07-0.27l-0.07.27-0.07.24L66,81h-1.4Z"/><path class="cls-1" d="M83.12,81h-1.2a0.53,0.53,0,0,1-.33-0.1,0.58,0.58,0,0,1-.19-0.25l-0.62-1.7H77.32l-0.62,1.7a0.55,0.55,0,0,1-.18.24,0.51,0.51,0,0,1-.33.11H75l3.28-8.35h1.59Zm-5.41-3.15h2.66l-1-2.78-0.15-.44c-0.06-.17-0.11-0.35-0.17-0.55l-0.16.55q-0.08.25-.15,0.44Z"/><path class="cls-1" d="M90.64,72.65v1.28H88.12V81H86.57V73.92H84V72.65h6.59Z"/><path class="cls-1" d="M98.53,79a0.29,0.29,0,0,1,.22.1l0.61,0.66a3.37,3.37,0,0,1-1.25,1,4.32,4.32,0,0,1-1.78.33,4.2,4.2,0,0,1-1.67-.32,3.66,3.66,0,0,1-1.27-.88,3.86,3.86,0,0,1-.81-1.35,5.06,5.06,0,0,1-.28-1.72,4.61,4.61,0,0,1,.31-1.72,3.89,3.89,0,0,1,2.23-2.23,4.65,4.65,0,0,1,1.74-.31,4.11,4.11,0,0,1,1.63.3,3.8,3.8,0,0,1,1.19.79l-0.52.72a0.5,0.5,0,0,1-.12.12,0.34,0.34,0,0,1-.2.05,0.45,0.45,0,0,1-.27-0.1,3.42,3.42,0,0,0-.35-0.23A2.86,2.86,0,0,0,97.41,74a3.13,3.13,0,0,0-1.91.1,2.41,2.41,0,0,0-.85.59,2.71,2.71,0,0,0-.55.93,3.56,3.56,0,0,0-.2,1.23,3.65,3.65,0,0,0,.2,1.25,2.77,2.77,0,0,0,.54.92,2.31,2.31,0,0,0,.8.57,2.49,2.49,0,0,0,1,.2,4.44,4.44,0,0,0,.57,0,2.42,2.42,0,0,0,.47-0.11,2.07,2.07,0,0,0,.41-0.19,2.58,2.58,0,0,0,.38-0.29l0.12-.08A0.3,0.3,0,0,1,98.53,79Z"/><path class="cls-1" d="M109.2,81h-1.56V77.35h-3.92V81h-1.57V72.65h1.57v3.59h3.92V72.65h1.56V81Z"/><path class="cls-1" d="M117.77,72.65v1.24h-3.7V76.2H117v1.2h-2.92v2.36h3.7V81H112.5V72.65h5.27Z"/><path class="cls-1" d="M125.21,74.17a0.43,0.43,0,0,1-.15.18,0.37,0.37,0,0,1-.2.05,0.5,0.5,0,0,1-.26-0.09l-0.34-.2a3,3,0,0,0-.46-0.2,1.93,1.93,0,0,0-.62-0.09,1.79,1.79,0,0,0-.56.08,1.19,1.19,0,0,0-.4.22,0.86,0.86,0,0,0-.25.33,1.1,1.1,0,0,0-.08.42,0.74,0.74,0,0,0,.16.49,1.37,1.37,0,0,0,.44.33,4.12,4.12,0,0,0,.62.25l0.71,0.23a6.7,6.7,0,0,1,.71.29,2.47,2.47,0,0,1,.62.42,1.91,1.91,0,0,1,.44.62,2.14,2.14,0,0,1,.16.88,2.88,2.88,0,0,1-.19,1.06,2.44,2.44,0,0,1-.57.86,2.66,2.66,0,0,1-.91.58,3.35,3.35,0,0,1-1.23.21,4,4,0,0,1-.79-0.08,4.1,4.1,0,0,1-.74-0.22,3.85,3.85,0,0,1-.66-0.35A3.26,3.26,0,0,1,120.1,80l0.45-.75a0.6,0.6,0,0,1,.15-0.14,0.38,0.38,0,0,1,.2-0.05,0.55,0.55,0,0,1,.31.12l0.4,0.26a2.93,2.93,0,0,0,.54.26,2.07,2.07,0,0,0,.74.12,1.52,1.52,0,0,0,1-.32,1.13,1.13,0,0,0,.36-0.9,0.84,0.84,0,0,0-.17-0.54,1.32,1.32,0,0,0-.44-0.35,3.21,3.21,0,0,0-.62-0.24l-0.7-.21a6.17,6.17,0,0,1-.71-0.28,2.31,2.31,0,0,1-.62-0.42,1.91,1.91,0,0,1-.44-0.65,2.47,2.47,0,0,1-.17-1,2.29,2.29,0,0,1,.71-1.66,2.63,2.63,0,0,1,.86-0.54,3.14,3.14,0,0,1,1.16-.2,3.89,3.89,0,0,1,1.36.23,3.09,3.09,0,0,1,1.06.65Z"/><rect class="cls-2" x="1.5" y="1.5" width="182" height="125"/><line class="cls-3" x1="23" y1="106.5" x2="164" y2="106.5"/><line class="cls-4" x1="38" y1="106.5" x2="117" y2="106.5"/></svg>