<?xml version="1.0" encoding="utf-8"?>
<!-- Generator: Adobe Illustrator 19.2.1, SVG Export Plug-In . SVG Version: 6.00 Build 0)  -->
<svg version="1.1" id="Layer_1" xmlns="http://www.w3.org/2000/svg" xmlns:xlink="http://www.w3.org/1999/xlink" x="0px" y="0px"
	 viewBox="0 0 247.4 240.8" style="enable-background:new 0 0 247.4 240.8;" xml:space="preserve">
<style type="text/css">
	.st0{fill:none;stroke:#222D40;stroke-width:5;stroke-linecap:round;stroke-linejoin:round;}
	.st1{fill:none;stroke:#222D40;stroke-width:5;stroke-linecap:round;stroke-linejoin:round;stroke-miterlimit:10;}
</style>
<g>
	<polyline class="st0" points="128.3,165.8 128.3,178.9 112.4,178.9 112.4,165.8 	"/>
	<path class="st1" d="M235.9,154.5l-25.6-44.3l-17,9.8l25.6,44.3c6.8,11.8,8.2,22.5,3.9,30c-4.3,7.5-14.2,11.6-27.9,11.6h-47v-11.3
		l-26.7,21.9l26.7,21.9v-12.7h47c21,0,36.9-7.6,44.9-21.5C247.8,190.2,246.4,172.6,235.9,154.5z"/>
	<path class="st1" d="M82.3,30.7L56.7,75l17,9.8l25.6-44.3c6.8-11.8,15.4-18.3,24-18.3c8.7,0,17.2,6.5,24,18.3l23.5,40.7l-9.8,5.7
		l32.3,12.2l5.6-34.1l-11,6.4l-23.5-40.7c-10.5-18.2-25.1-28.2-41-28.2C107.4,2.5,92.8,12.5,82.3,30.7z"/>
	<path class="st1" d="M52.5,226h51.2l0-19.6H52.5c-13.7,0-23.6-4.1-27.9-11.6c-4.3-7.5-3-18.1,3.9-30L52,124l9.8,5.7l-5.6-34.1
		L24,107.8l11,6.4l-23.5,40.7C1,173.1-0.4,190.7,7.6,204.5C15.6,218.4,31.6,226,52.5,226z"/>
	<polygon class="st0" points="142.2,139 155.3,139 137.8,115.3 137.7,115 150.8,115 135.6,94.4 120.4,73.7 105.1,94.4 89.9,115 
		103,115 102.9,115.3 85.4,139 98.5,139 80.8,163 120.4,163 159.9,163 	"/>
</g>
</svg>
