<?xml version="1.0" encoding="utf-8"?>
<!-- Generator: Adobe Illustrator 19.2.1, SVG Export Plug-In . SVG Version: 6.00 Build 0)  -->
<svg version="1.1" id="Layer_1" xmlns="http://www.w3.org/2000/svg" xmlns:xlink="http://www.w3.org/1999/xlink" x="0px" y="0px"
	 viewBox="0 0 171.7 84.4" style="enable-background:new 0 0 171.7 84.4;" xml:space="preserve">
<style type="text/css">
	.st0{fill:#6E8327;}
	.st1{fill:none;stroke:#6E8327;stroke-width:1.9046;stroke-miterlimit:10;}
</style>
<g>
	<g>
		<g>
			<g id="layer1" transform="translate(-2720.4583,407.33992)">
				<g id="g15654" transform="matrix(2.8482808,0,0,2.8482808,-4938.1708,-1161.0172)">
					<path id="path13902" class="st0" d="M2703.9,270.7c-3.5,0-4.7,5.4-5.8,9.7c-0.4-0.4-1.7-1.7-1.7-1.7c-0.3-0.3-0.5-0.2-0.7,0
						c-0.2,0.2-0.2,0.5,0,0.7c0,0,1.7,1.7,2.3,2.3c0.2,0.2,0.4,0.3,0.6,0.1c0.2-0.1,0.3-0.4,0.3-0.4c2-9,3.8-9.7,5-9.7
						c1,0,2.1,0.7,2.1,2.2c1.5,0,2.4,1.9,1.2,3.1c1,0.5,1.4,1.1,1.4,1.8c0,0.7-0.6,1.5-1.5,1.5c-0.9,0-1.3-0.6-2-0.6
						c-0.3,0-0.5,0.3-0.5,0.5v1.8h-1.3v-1.8c0-0.3-0.2-0.5-0.5-0.5c0,0-0.1,0-0.1,0l-1.8,0.2c-0.2,0-0.4,0.3-0.4,0.5
						c0,0.3,0.2,0.5,0.5,0.5c0,0,0.1,0,0.1,0c0,0,1.1-0.1,1.1-0.1s0,1.8,0,1.8c0,0.2,0.3,0.5,0.5,0.5h2.3c0.3,0,0.5-0.2,0.5-0.5
						v-1.6c0.5,0.3,1.2,0.4,1.5,0.4c1.3,0,2.6-1,2.6-2.5c0-1.4-1.1-2.1-1.1-2.1c0.6-1.6-0.4-3.2-1.7-3.7
						C2706.4,271.3,2705,270.7,2703.9,270.7"/>
					<path id="path13910" class="st0" d="M2702.4,285.1c0,0.4,0.5,0.7,1.3,1c0.6,0.3,1,0.6,1,0.8c0,0.4-0.4,0.5-0.8,0.5
						c-0.6,0-1-0.2-1.2-0.8l0,0h-0.1c-0.1,0-0.2,0-0.2,0.1c0,0.1,0,0.1,0,0.2c0,0,0.1,0.6,0.1,0.6c0,0.1,0.1,0.2,0.3,0.2
						c0.1,0,0.6,0.1,1,0.1c1.2,0,1.7-0.5,1.7-1c0-0.3-0.3-0.7-1.1-1.1l-0.3-0.2c-0.5-0.2-0.8-0.4-0.8-0.6c0-0.2,0.3-0.4,0.8-0.4
						c0.6,0,0.7,0.3,0.8,0.6l0,0.1h0.1c0.1,0,0.2,0,0.3-0.1c0,0,0-0.1,0-0.1l0-0.5c0-0.2-0.1-0.2-0.3-0.2c-0.2,0-0.4-0.1-0.8-0.1
						C2703,284.2,2702.4,284.5,2702.4,285.1"/>
					<path id="path13914" class="st0" d="M2705.8,286.1c0,0.9,0.7,1.7,2.2,1.7c0.7,0,1.1-0.2,1.4-0.3l0.1,0l-0.1-0.1l0,0
						c0,0-0.1-0.1-0.1-0.1l-0.1,0c-0.1,0.1-0.4,0.2-1,0.2c-0.7,0-1.5-0.5-1.5-1.5c0-1,0.9-1.4,1.6-1.4c0.5,0,0.8,0.2,0.9,0.6l0,0.1
						h0.1c0.1,0,0.2,0,0.2-0.1v-0.6c0-0.1-0.2-0.2-0.2-0.2l-0.1,0c-0.2,0-0.3,0-0.8,0C2706.9,284.2,2705.8,285,2705.8,286.1"/>
					<path id="path13918" class="st0" d="M2700.4,284.3l-1.3,0l-0.9,0l-0.1,0c-0.1,0-0.1,0.1-0.1,0.1c0,0,0,0.2,0.1,0.2
						c0.5,0,0.5,0,0.5,0.2l0,0.1l0,0.5v1.1c0,0.2,0,0.5,0,0.7c0,0.1,0,0.1-0.5,0.1c-0.1,0-0.2,0-0.2,0.2c0,0,0,0.1,0.1,0.1l0,0
						c0.1,0,0.2,0,0.9,0c0.8,0,0.9,0,1,0l0,0c0.1,0,0.2,0,0.2-0.1c0-0.1-0.1-0.2-0.3-0.2c-0.5,0-0.5-0.1-0.5-0.1c0-0.2,0-0.5,0-0.7
						c0,0,0-0.3,0-0.4c0.1,0,0.4,0,0.4,0c0.6,0,0.7,0,0.7,0.5c0,0.1,0.1,0.1,0.2,0.1c0.1,0,0.2-0.1,0.2-0.1l0-0.2c0-0.1,0-0.2,0-0.4
						v-0.7c0-0.1-0.1-0.1-0.2-0.1c-0.1,0-0.1,0.1-0.2,0.4c0,0.1-0.3,0.2-0.7,0.2c0,0-0.2,0-0.3,0c0-0.1,0-1,0-1c0-0.3,0-0.3,0.1-0.3
						c0.2,0,0.8,0,0.9,0c0.2,0,0.3,0,0.4,0.1c0.3,0.2,0.4,0.3,0.5,0.4c0.1,0.1,0.1,0.1,0.2,0.1c0,0,0.2,0,0.2-0.1c0,0,0-0.1-0.1-0.1
						c0-0.1-0.1-0.3-0.2-0.5c0-0.1-0.1-0.1-0.3-0.1L2700.4,284.3"/>
				</g>
			</g>
		</g>
		<g>
			<path class="st0" d="M74.4,29.2v-10h6.8v1.2h-5.4v3.1h4.7v1.2h-4.7v4.6H74.4z"/>
			<path class="st0" d="M82.6,25.6c0-1.3,0.4-2.3,1.1-3c0.6-0.5,1.4-0.8,2.3-0.8c1,0,1.8,0.3,2.4,1c0.6,0.7,1,1.6,1,2.7
				c0,0.9-0.1,1.7-0.4,2.2c-0.3,0.5-0.7,1-1.2,1.2c-0.5,0.3-1.1,0.4-1.8,0.4c-1,0-1.8-0.3-2.5-1S82.6,26.8,82.6,25.6z M83.8,25.6
				c0,0.9,0.2,1.6,0.6,2.1c0.4,0.5,0.9,0.7,1.5,0.7c0.6,0,1.1-0.2,1.5-0.7c0.4-0.5,0.6-1.2,0.6-2.1c0-0.9-0.2-1.6-0.6-2
				c-0.4-0.5-0.9-0.7-1.5-0.7c-0.6,0-1.1,0.2-1.5,0.7S83.8,24.7,83.8,25.6z"/>
			<path class="st0" d="M91.1,29.2V22h1.1v1.1c0.3-0.5,0.5-0.9,0.8-1s0.5-0.2,0.8-0.2c0.4,0,0.8,0.1,1.3,0.4l-0.4,1.1
				c-0.3-0.2-0.6-0.3-0.9-0.3c-0.3,0-0.5,0.1-0.7,0.2c-0.2,0.2-0.4,0.4-0.5,0.7c-0.1,0.4-0.2,0.9-0.2,1.4v3.8H91.1z"/>
			<path class="st0" d="M101.1,26.9l1.3,0.2c-0.2,0.7-0.6,1.3-1.1,1.7c-0.5,0.4-1.2,0.6-2.1,0.6c-1.1,0-1.9-0.3-2.5-1
				c-0.6-0.7-0.9-1.6-0.9-2.8c0-1.2,0.3-2.2,0.9-2.8s1.4-1,2.4-1c1,0,1.8,0.3,2.4,1s0.9,1.6,0.9,2.8c0,0.1,0,0.2,0,0.3H97
				c0,0.8,0.3,1.4,0.7,1.8c0.4,0.4,0.9,0.6,1.5,0.6c0.5,0,0.8-0.1,1.2-0.4C100.7,27.8,101,27.4,101.1,26.9z M97.1,24.9h4.1
				c-0.1-0.6-0.2-1.1-0.5-1.4c-0.4-0.5-0.9-0.7-1.5-0.7c-0.6,0-1,0.2-1.4,0.6C97.4,23.8,97.1,24.3,97.1,24.9z"/>
			<path class="st0" d="M103.8,27.1l1.2-0.2c0.1,0.5,0.3,0.9,0.6,1.1c0.3,0.3,0.7,0.4,1.3,0.4c0.6,0,1-0.1,1.3-0.3
				c0.3-0.2,0.4-0.5,0.4-0.8c0-0.3-0.1-0.5-0.4-0.7c-0.2-0.1-0.6-0.2-1.3-0.4c-0.9-0.2-1.5-0.4-1.9-0.6c-0.3-0.2-0.6-0.4-0.8-0.7
				c-0.2-0.3-0.3-0.6-0.3-1c0-0.3,0.1-0.6,0.2-0.9c0.1-0.3,0.3-0.5,0.6-0.7c0.2-0.1,0.5-0.3,0.8-0.4c0.3-0.1,0.7-0.1,1.1-0.1
				c0.6,0,1.1,0.1,1.5,0.2s0.7,0.4,1,0.7c0.2,0.3,0.3,0.7,0.4,1.1l-1.2,0.2c-0.1-0.4-0.2-0.7-0.5-0.9c-0.3-0.2-0.6-0.3-1.1-0.3
				c-0.6,0-1,0.1-1.2,0.3c-0.2,0.2-0.4,0.4-0.4,0.7c0,0.2,0.1,0.3,0.2,0.4c0.1,0.1,0.3,0.2,0.5,0.3c0.1,0,0.5,0.2,1.1,0.3
				c0.9,0.2,1.5,0.4,1.8,0.6c0.3,0.1,0.6,0.4,0.8,0.6c0.2,0.3,0.3,0.6,0.3,1.1c0,0.4-0.1,0.8-0.4,1.2c-0.2,0.4-0.6,0.6-1,0.8
				c-0.5,0.2-1,0.3-1.5,0.3c-0.9,0-1.7-0.2-2.2-0.6C104.3,28.4,104,27.8,103.8,27.1z"/>
			<path class="st0" d="M114.3,28.1l0.2,1.1c-0.3,0.1-0.7,0.1-0.9,0.1c-0.4,0-0.8-0.1-1-0.2s-0.4-0.3-0.5-0.6
				c-0.1-0.2-0.2-0.7-0.2-1.5v-4.2H111v-1h0.9v-1.8l1.2-0.7V22h1.2v1h-1.2v4.2c0,0.4,0,0.6,0.1,0.7c0,0.1,0.1,0.2,0.2,0.2
				c0.1,0.1,0.2,0.1,0.4,0.1C113.9,28.2,114.1,28.1,114.3,28.1z"/>
			<path class="st0" d="M73.8,43l1.3-0.1c0.1,0.5,0.2,0.9,0.4,1.2c0.2,0.3,0.6,0.6,1,0.8c0.5,0.2,1,0.3,1.5,0.3c0.5,0,1-0.1,1.3-0.2
				s0.7-0.4,0.9-0.6c0.2-0.3,0.3-0.5,0.3-0.9c0-0.3-0.1-0.6-0.3-0.8c-0.2-0.2-0.5-0.4-0.9-0.6c-0.3-0.1-0.9-0.3-1.8-0.5
				c-0.9-0.2-1.6-0.4-1.9-0.6c-0.5-0.3-0.8-0.6-1.1-0.9c-0.2-0.4-0.4-0.8-0.4-1.2c0-0.5,0.1-1,0.4-1.4c0.3-0.4,0.7-0.8,1.3-1
				s1.2-0.3,1.8-0.3c0.7,0,1.4,0.1,2,0.4c0.6,0.2,1,0.6,1.3,1.1s0.5,1,0.5,1.6l-1.3,0.1c-0.1-0.6-0.3-1.1-0.7-1.4s-1-0.5-1.7-0.5
				c-0.8,0-1.4,0.1-1.8,0.4c-0.4,0.3-0.6,0.6-0.6,1.1c0,0.4,0.1,0.7,0.4,0.9c0.3,0.2,0.9,0.5,2,0.7c1.1,0.2,1.8,0.5,2.2,0.6
				c0.6,0.3,1,0.6,1.3,1c0.3,0.4,0.4,0.9,0.4,1.4c0,0.5-0.2,1-0.5,1.5C81,45.4,80.6,45.7,80,46c-0.6,0.3-1.2,0.4-1.9,0.4
				c-0.9,0-1.7-0.1-2.3-0.4s-1.1-0.7-1.4-1.2C74,44.3,73.8,43.7,73.8,43z"/>
			<path class="st0" d="M86.5,45.1l0.2,1.1c-0.3,0.1-0.7,0.1-0.9,0.1c-0.4,0-0.8-0.1-1-0.2s-0.4-0.3-0.5-0.6
				c-0.1-0.2-0.2-0.7-0.2-1.5v-4.2h-0.9v-1H84v-1.8l1.2-0.7V39h1.2v1h-1.2v4.2c0,0.4,0,0.6,0.1,0.7s0.1,0.2,0.2,0.2s0.2,0.1,0.4,0.1
				C86.1,45.2,86.3,45.1,86.5,45.1z"/>
			<path class="st0" d="M93,43.9l1.3,0.2c-0.2,0.7-0.6,1.3-1.1,1.7c-0.5,0.4-1.2,0.6-2.1,0.6c-1.1,0-1.9-0.3-2.5-1
				c-0.6-0.7-0.9-1.6-0.9-2.8c0-1.2,0.3-2.2,0.9-2.8s1.4-1,2.4-1c1,0,1.8,0.3,2.4,1s0.9,1.6,0.9,2.8c0,0.1,0,0.2,0,0.3h-5.4
				c0,0.8,0.3,1.4,0.7,1.8c0.4,0.4,0.9,0.6,1.5,0.6c0.5,0,0.8-0.1,1.2-0.4C92.6,44.8,92.8,44.4,93,43.9z M89,41.9H93
				c-0.1-0.6-0.2-1.1-0.5-1.4c-0.4-0.5-0.9-0.7-1.5-0.7c-0.6,0-1,0.2-1.4,0.6C89.2,40.8,89,41.3,89,41.9z"/>
			<path class="st0" d="M97.5,46.2L95.3,39h1.3l1.2,4.2l0.4,1.6c0-0.1,0.1-0.6,0.4-1.5l1.2-4.3h1.3l1.1,4.2l0.4,1.4l0.4-1.4l1.2-4.2
				h1.2l-2.3,7.3h-1.3l-1.2-4.3l-0.3-1.2l-1.5,5.6H97.5z"/>
			<path class="st0" d="M111.4,45.3c-0.5,0.4-0.9,0.7-1.3,0.8c-0.4,0.2-0.9,0.2-1.4,0.2c-0.8,0-1.4-0.2-1.8-0.6
				c-0.4-0.4-0.6-0.9-0.6-1.5c0-0.4,0.1-0.7,0.2-1c0.2-0.3,0.4-0.5,0.6-0.7c0.3-0.2,0.6-0.3,0.9-0.4c0.2-0.1,0.6-0.1,1.1-0.2
				c1-0.1,1.7-0.3,2.2-0.4c0-0.2,0-0.3,0-0.3c0-0.5-0.1-0.9-0.3-1.1c-0.3-0.3-0.8-0.4-1.4-0.4c-0.6,0-1,0.1-1.3,0.3
				c-0.3,0.2-0.5,0.6-0.6,1.1l-1.2-0.2c0.1-0.5,0.3-0.9,0.5-1.2c0.3-0.3,0.6-0.6,1.1-0.7c0.5-0.2,1-0.3,1.6-0.3
				c0.6,0,1.1,0.1,1.5,0.2c0.4,0.1,0.7,0.3,0.9,0.6c0.2,0.2,0.3,0.5,0.4,0.8c0,0.2,0.1,0.6,0.1,1.1v1.6c0,1.1,0,1.9,0.1,2.2
				c0.1,0.3,0.2,0.6,0.3,0.9h-1.3C111.5,46,111.4,45.7,111.4,45.3z M111.3,42.6c-0.4,0.2-1.1,0.3-2,0.5c-0.5,0.1-0.9,0.2-1.1,0.2
				c-0.2,0.1-0.4,0.2-0.5,0.4c-0.1,0.2-0.2,0.4-0.2,0.6c0,0.3,0.1,0.6,0.4,0.8c0.2,0.2,0.6,0.3,1.1,0.3c0.5,0,0.9-0.1,1.3-0.3
				c0.4-0.2,0.6-0.5,0.8-0.9c0.1-0.3,0.2-0.7,0.2-1.2V42.6z"/>
			<path class="st0" d="M114.8,46.2V39h1.1v1.1c0.3-0.5,0.5-0.9,0.8-1s0.5-0.2,0.8-0.2c0.4,0,0.8,0.1,1.3,0.4l-0.4,1.1
				c-0.3-0.2-0.6-0.3-0.9-0.3c-0.3,0-0.5,0.1-0.7,0.2c-0.2,0.2-0.4,0.4-0.5,0.7c-0.1,0.4-0.2,0.9-0.2,1.4v3.8H114.8z"/>
			<path class="st0" d="M124.5,46.2v-0.9c-0.5,0.7-1.1,1.1-2,1.1c-0.6,0-1.1-0.2-1.6-0.5s-0.9-0.8-1.1-1.3c-0.3-0.6-0.4-1.2-0.4-2
				c0-0.7,0.1-1.4,0.4-2c0.2-0.6,0.6-1,1.1-1.4c0.5-0.3,1-0.5,1.6-0.5c0.4,0,0.8,0.1,1.2,0.3c0.3,0.2,0.6,0.4,0.8,0.7v-3.6h1.2v10
				H124.5z M120.6,42.6c0,0.9,0.2,1.6,0.6,2.1c0.4,0.5,0.9,0.7,1.4,0.7c0.5,0,1-0.2,1.4-0.7c0.4-0.4,0.6-1.1,0.6-2
				c0-1-0.2-1.7-0.6-2.2s-0.9-0.7-1.4-0.7c-0.5,0-1,0.2-1.4,0.7C120.8,40.9,120.6,41.6,120.6,42.6z"/>
			<path class="st0" d="M127.4,44.1l1.2-0.2c0.1,0.5,0.3,0.9,0.6,1.1c0.3,0.3,0.7,0.4,1.3,0.4c0.6,0,1-0.1,1.3-0.3
				c0.3-0.2,0.4-0.5,0.4-0.8c0-0.3-0.1-0.5-0.4-0.7c-0.2-0.1-0.6-0.2-1.3-0.4c-0.9-0.2-1.5-0.4-1.9-0.6c-0.3-0.2-0.6-0.4-0.8-0.7
				c-0.2-0.3-0.3-0.6-0.3-1c0-0.3,0.1-0.6,0.2-0.9c0.1-0.3,0.3-0.5,0.6-0.7c0.2-0.1,0.5-0.3,0.8-0.4c0.3-0.1,0.7-0.1,1.1-0.1
				c0.6,0,1.1,0.1,1.5,0.2s0.7,0.4,1,0.7c0.2,0.3,0.3,0.7,0.4,1.1L132,41c-0.1-0.4-0.2-0.7-0.5-0.9c-0.3-0.2-0.6-0.3-1.1-0.3
				c-0.6,0-1,0.1-1.2,0.3c-0.2,0.2-0.4,0.4-0.4,0.7c0,0.2,0,0.3,0.2,0.4c0.1,0.1,0.3,0.2,0.5,0.3c0.1,0,0.5,0.2,1.1,0.3
				c0.9,0.2,1.5,0.4,1.8,0.6c0.3,0.1,0.6,0.4,0.8,0.6c0.2,0.3,0.3,0.6,0.3,1.1c0,0.4-0.1,0.8-0.4,1.2c-0.2,0.4-0.6,0.6-1,0.8
				c-0.5,0.2-1,0.3-1.5,0.3c-0.9,0-1.7-0.2-2.2-0.6C127.9,45.4,127.6,44.8,127.4,44.1z"/>
			<path class="st0" d="M135.3,46.2v-10h1.2v3.6c0.6-0.7,1.3-1,2.2-1c0.5,0,1,0.1,1.4,0.3c0.4,0.2,0.7,0.5,0.9,0.9s0.3,0.9,0.3,1.6
				v4.6H140v-4.6c0-0.6-0.1-1.1-0.4-1.3c-0.3-0.3-0.6-0.4-1.1-0.4c-0.4,0-0.7,0.1-1,0.3c-0.3,0.2-0.5,0.4-0.7,0.8s-0.2,0.8-0.2,1.3
				v4H135.3z"/>
			<path class="st0" d="M143.4,37.6v-1.4h1.2v1.4H143.4z M143.4,46.2V39h1.2v7.3H143.4z"/>
			<path class="st0" d="M146.9,49V39h1.1v0.9c0.3-0.4,0.6-0.6,0.9-0.8c0.3-0.2,0.7-0.3,1.2-0.3c0.6,0,1.2,0.2,1.6,0.5
				c0.5,0.3,0.8,0.8,1.1,1.3c0.2,0.6,0.4,1.2,0.4,1.9c0,0.7-0.1,1.4-0.4,2c-0.3,0.6-0.7,1-1.2,1.4c-0.5,0.3-1,0.5-1.6,0.5
				c-0.4,0-0.8-0.1-1.1-0.3c-0.3-0.2-0.6-0.4-0.8-0.7V49H146.9z M148,42.6c0,0.9,0.2,1.6,0.6,2.1c0.4,0.4,0.8,0.7,1.4,0.7
				c0.5,0,1-0.2,1.4-0.7c0.4-0.5,0.6-1.2,0.6-2.2c0-0.9-0.2-1.6-0.6-2.1c-0.4-0.5-0.8-0.7-1.4-0.7c-0.5,0-1,0.2-1.4,0.7
				C148.2,41,148,41.7,148,42.6z"/>
			<path class="st0" d="M81.4,59.7l1.3,0.3c-0.3,1.1-0.8,1.9-1.5,2.5c-0.7,0.6-1.6,0.9-2.6,0.9c-1.1,0-2-0.2-2.6-0.7
				c-0.7-0.4-1.2-1.1-1.5-1.9s-0.5-1.7-0.5-2.7c0-1,0.2-2,0.6-2.7c0.4-0.8,1-1.4,1.7-1.8c0.7-0.4,1.5-0.6,2.4-0.6
				c1,0,1.8,0.3,2.5,0.8s1.2,1.2,1.4,2.2l-1.3,0.3c-0.2-0.7-0.6-1.3-1-1.6s-1-0.5-1.7-0.5c-0.8,0-1.4,0.2-1.9,0.6s-0.9,0.9-1.1,1.5
				c-0.2,0.6-0.3,1.3-0.3,1.9c0,0.9,0.1,1.6,0.4,2.2c0.2,0.6,0.6,1.1,1.2,1.4s1.1,0.5,1.7,0.5c0.7,0,1.4-0.2,1.9-0.6
				S81.3,60.5,81.4,59.7z"/>
			<path class="st0" d="M84.1,59.6c0-1.3,0.4-2.3,1.1-3c0.6-0.5,1.4-0.8,2.3-0.8c1,0,1.8,0.3,2.4,1c0.6,0.7,1,1.6,1,2.7
				c0,0.9-0.1,1.7-0.4,2.2c-0.3,0.5-0.7,1-1.2,1.2c-0.5,0.3-1.1,0.4-1.8,0.4c-1,0-1.8-0.3-2.5-1S84.1,60.8,84.1,59.6z M85.4,59.6
				c0,0.9,0.2,1.6,0.6,2.1c0.4,0.5,0.9,0.7,1.5,0.7c0.6,0,1.1-0.2,1.5-0.7c0.4-0.5,0.6-1.2,0.6-2.1c0-0.9-0.2-1.6-0.6-2
				c-0.4-0.5-0.9-0.7-1.5-0.7c-0.6,0-1.1,0.2-1.5,0.7S85.4,58.7,85.4,59.6z"/>
			<path class="st0" d="M97.5,63.2v-1.1c-0.6,0.8-1.3,1.2-2.3,1.2c-0.4,0-0.8-0.1-1.2-0.2c-0.4-0.2-0.6-0.4-0.8-0.6
				c-0.2-0.2-0.3-0.6-0.4-0.9c-0.1-0.2-0.1-0.6-0.1-1.1V56h1.2v4c0,0.6,0,1.1,0.1,1.3c0.1,0.3,0.2,0.6,0.5,0.8
				c0.2,0.2,0.6,0.3,0.9,0.3s0.7-0.1,1-0.3c0.3-0.2,0.6-0.4,0.7-0.8c0.1-0.3,0.2-0.8,0.2-1.4V56h1.2v7.3H97.5z"/>
			<path class="st0" d="M100.9,63.2V56h1.1v1c0.5-0.8,1.3-1.2,2.3-1.2c0.4,0,0.8,0.1,1.2,0.2c0.4,0.2,0.6,0.4,0.8,0.6
				c0.2,0.3,0.3,0.6,0.4,0.9c0,0.2,0.1,0.6,0.1,1.2v4.5h-1.2v-4.4c0-0.5,0-0.9-0.1-1.1c-0.1-0.2-0.3-0.4-0.5-0.6
				c-0.2-0.1-0.5-0.2-0.9-0.2c-0.5,0-1,0.2-1.4,0.5c-0.4,0.3-0.6,1-0.6,1.9v4H100.9z"/>
			<path class="st0" d="M113.7,60.6l1.2,0.2c-0.1,0.8-0.5,1.5-1,2c-0.5,0.5-1.2,0.7-2,0.7c-1,0-1.8-0.3-2.4-1
				c-0.6-0.6-0.9-1.6-0.9-2.8c0-0.8,0.1-1.5,0.4-2.1s0.7-1,1.2-1.3c0.5-0.3,1.1-0.4,1.7-0.4c0.8,0,1.4,0.2,1.9,0.6
				c0.5,0.4,0.8,1,1,1.7l-1.2,0.2c-0.1-0.5-0.3-0.9-0.6-1.1c-0.3-0.2-0.6-0.4-1-0.4c-0.6,0-1.1,0.2-1.5,0.7
				c-0.4,0.4-0.6,1.1-0.6,2.1c0,1,0.2,1.7,0.6,2.1c0.4,0.4,0.9,0.7,1.5,0.7c0.5,0,0.9-0.1,1.2-0.4C113.4,61.6,113.6,61.2,113.7,60.6
				z"/>
			<path class="st0" d="M116.4,54.6v-1.4h1.2v1.4H116.4z M116.4,63.2V56h1.2v7.3H116.4z"/>
			<path class="st0" d="M119.8,63.2v-10h1.2v10H119.8z"/>
		</g>
		<g>
			<path class="st0" d="M126.4,52.5c0.4,0,0.9,0.1,1.3,0.3c0.4,0.2,0.7,0.5,1,1c0.2,0.4,0.3,0.8,0.3,1.3c0,0.4-0.1,0.9-0.3,1.3
				c-0.2,0.4-0.5,0.7-1,1c-0.4,0.2-0.8,0.3-1.3,0.3s-0.9-0.1-1.3-0.3c-0.4-0.2-0.7-0.5-1-1c-0.2-0.4-0.3-0.8-0.3-1.3
				c0-0.4,0.1-0.9,0.3-1.3c0.2-0.4,0.6-0.7,1-1C125.5,52.6,125.9,52.5,126.4,52.5z M126.4,52.9c-0.4,0-0.7,0.1-1.1,0.3
				c-0.3,0.2-0.6,0.5-0.8,0.8c-0.2,0.3-0.3,0.7-0.3,1.1c0,0.4,0.1,0.7,0.3,1.1c0.2,0.3,0.5,0.6,0.8,0.8c0.3,0.2,0.7,0.3,1.1,0.3
				c0.4,0,0.7-0.1,1.1-0.3c0.3-0.2,0.6-0.5,0.8-0.8c0.2-0.3,0.3-0.7,0.3-1.1c0-0.4-0.1-0.7-0.3-1.1c-0.2-0.3-0.5-0.6-0.8-0.8
				C127.1,53,126.7,52.9,126.4,52.9z M125.2,56.5v-2.8h1c0.3,0,0.6,0,0.7,0.1c0.1,0.1,0.3,0.1,0.3,0.3c0.1,0.1,0.1,0.3,0.1,0.4
				c0,0.2-0.1,0.4-0.2,0.5c-0.1,0.2-0.3,0.2-0.6,0.3c0.1,0,0.2,0.1,0.2,0.1c0.1,0.1,0.2,0.3,0.4,0.6l0.3,0.5H127l-0.2-0.4
				c-0.2-0.3-0.4-0.6-0.5-0.6c-0.1-0.1-0.2-0.1-0.4-0.1h-0.3v1.2H125.2z M125.7,55h0.5c0.3,0,0.4,0,0.5-0.1c0.1-0.1,0.1-0.2,0.1-0.3
				c0-0.1,0-0.2-0.1-0.2c0-0.1-0.1-0.1-0.2-0.1s-0.2,0-0.5,0h-0.5V55z"/>
		</g>
		<g>
			<path class="st0" d="M58.8,18.4c0.4,0,0.9,0.1,1.3,0.3c0.4,0.2,0.7,0.5,1,1c0.2,0.4,0.3,0.8,0.3,1.3c0,0.4-0.1,0.9-0.3,1.3
				c-0.2,0.4-0.5,0.7-1,1c-0.4,0.2-0.8,0.3-1.3,0.3s-0.9-0.1-1.3-0.3c-0.4-0.2-0.7-0.5-1-1c-0.2-0.4-0.3-0.8-0.3-1.3
				c0-0.4,0.1-0.9,0.3-1.3c0.2-0.4,0.6-0.7,1-1C58,18.5,58.4,18.4,58.8,18.4z M58.8,18.9c-0.4,0-0.7,0.1-1.1,0.3
				c-0.3,0.2-0.6,0.5-0.8,0.8c-0.2,0.3-0.3,0.7-0.3,1.1c0,0.4,0.1,0.7,0.3,1.1c0.2,0.3,0.5,0.6,0.8,0.8c0.3,0.2,0.7,0.3,1.1,0.3
				c0.4,0,0.7-0.1,1.1-0.3c0.3-0.2,0.6-0.5,0.8-0.8c0.2-0.3,0.3-0.7,0.3-1.1c0-0.4-0.1-0.7-0.3-1.1c-0.2-0.3-0.5-0.6-0.8-0.8
				C59.6,18.9,59.2,18.9,58.8,18.9z M57.7,22.4v-2.8h1c0.3,0,0.6,0,0.7,0.1c0.1,0.1,0.3,0.1,0.3,0.3s0.1,0.3,0.1,0.4
				c0,0.2-0.1,0.4-0.2,0.5c-0.1,0.2-0.3,0.2-0.6,0.3c0.1,0,0.2,0.1,0.2,0.1c0.1,0.1,0.2,0.3,0.4,0.6l0.3,0.5h-0.5L59.2,22
				c-0.2-0.3-0.4-0.6-0.5-0.6c-0.1-0.1-0.2-0.1-0.4-0.1h-0.3v1.2H57.7z M58.2,20.9h0.5c0.3,0,0.4,0,0.5-0.1c0.1-0.1,0.1-0.2,0.1-0.3
				c0-0.1,0-0.2-0.1-0.2c0-0.1-0.1-0.1-0.2-0.1c-0.1,0-0.2,0-0.5,0h-0.5V20.9z"/>
		</g>
	</g>
	<rect x="1" y="1" class="st1" width="169.8" height="82.5"/>
</g>
</svg>
