<svg id="Layer_1" data-name="Layer 1" xmlns="http://www.w3.org/2000/svg" width="18.9" height="53.99" viewBox="0 0 18.9 53.99"><defs><style>.cls-1{fill:#fff;}</style></defs><title>ikonice</title><rect class="cls-1" x="8.7" y="2.33" width="2" height="50"/><path class="cls-1" d="M0.43,15.1a0.94,0.94,0,0,0,1.3-.29L9.45,2.69l7.72,12.12a0.94,0.94,0,0,0,1.59-1L10.24,0.43a0.94,0.94,0,0,0-1.59,0L0.15,13.8A0.94,0.94,0,0,0,.43,15.1Z"/><path class="cls-1" d="M0.43,38.89a0.94,0.94,0,0,1,1.3.29L9.45,51.3l7.72-12.12a0.94,0.94,0,0,1,1.59,1L10.24,53.55a0.94,0.94,0,0,1-1.59,0L0.15,40.18A0.94,0.94,0,0,1,.43,38.89Z"/></svg>