<svg id="Layer_1" data-name="Layer 1" xmlns="http://www.w3.org/2000/svg" width="57" height="57" viewBox="0 0 57 57"><defs><style>.cls-1{fill:#fff;}</style></defs><title>ikonice</title><path class="cls-1" d="M25,19.67A5.33,5.33,0,0,1,19.67,25H5.33A5.33,5.33,0,0,1,0,19.67V5.33A5.33,5.33,0,0,1,5.33,0H19.67A5.33,5.33,0,0,1,25,5.33V19.67ZM23,5.33A3.33,3.33,0,0,0,19.67,2H5.33A3.33,3.33,0,0,0,2,5.33V19.67A3.33,3.33,0,0,0,5.33,23H19.67A3.33,3.33,0,0,0,23,19.67V5.33Z"/><path class="cls-1" d="M57,19.67A5.33,5.33,0,0,1,51.67,25H37.33A5.33,5.33,0,0,1,32,19.67V5.33A5.33,5.33,0,0,1,37.33,0H51.67A5.33,5.33,0,0,1,57,5.33V19.67ZM55,5.33A3.33,3.33,0,0,0,51.67,2H37.33A3.33,3.33,0,0,0,34,5.33V19.67A3.33,3.33,0,0,0,37.33,23H51.67A3.33,3.33,0,0,0,55,19.67V5.33Z"/><path class="cls-1" d="M25,51.67A5.33,5.33,0,0,1,19.67,57H5.33A5.33,5.33,0,0,1,0,51.67V37.33A5.33,5.33,0,0,1,5.33,32H19.67A5.33,5.33,0,0,1,25,37.33V51.67ZM23,37.33A3.33,3.33,0,0,0,19.67,34H5.33A3.33,3.33,0,0,0,2,37.33V51.67A3.33,3.33,0,0,0,5.33,55H19.67A3.33,3.33,0,0,0,23,51.67V37.33Z"/><path class="cls-1" d="M57,51.67A5.33,5.33,0,0,1,51.67,57H37.33A5.33,5.33,0,0,1,32,51.67V37.33A5.33,5.33,0,0,1,37.33,32H51.67A5.33,5.33,0,0,1,57,37.33V51.67ZM55,37.33A3.33,3.33,0,0,0,51.67,34H37.33A3.33,3.33,0,0,0,34,37.33V51.67A3.33,3.33,0,0,0,37.33,55H51.67A3.33,3.33,0,0,0,55,51.67V37.33Z"/></svg>