<?xml version="1.0" encoding="utf-8"?>
<!-- Generator: Adobe Illustrator 19.2.1, SVG Export Plug-In . SVG Version: 6.00 Build 0)  -->
<svg version="1.1" xmlns="http://www.w3.org/2000/svg" xmlns:xlink="http://www.w3.org/1999/xlink" x="0px" y="0px"
	 viewBox="0 0 506.7 453.5" style="enable-background:new 0 0 506.7 453.5;" xml:space="preserve">
<style type="text/css">
	.st0{opacity:0.26;}
	.st1{fill:#222D40;}
	.st2{fill:#222D40;stroke:#3B4F66;stroke-miterlimit:10;}
	.st3{fill:#222D40;stroke:#3B4F66;stroke-width:2;stroke-miterlimit:10;}
	.st4{fill:none;stroke:#C6986B;stroke-width:2;stroke-miterlimit:10;}
	.st5{fill:#FFFFFF;}
	.st6{fill:#C6986B;}
	.st7{fill:none;stroke:#FFFFFF;stroke-width:1.6967;stroke-miterlimit:10;}
	.st8{fill:none;stroke:#FFFFFF;stroke-width:2;stroke-miterlimit:10;}
	.st9{fill:none;stroke:#AD877B;stroke-miterlimit:10;}
	.st10{fill:none;stroke:#FFFFFF;stroke-width:1.5;stroke-miterlimit:10;}
	.st11{fill:none;stroke:#C6986B;stroke-width:1.5;stroke-miterlimit:10;}
	.st12{opacity:0.9;}
	.st13{fill:none;stroke:#FFFFFF;stroke-miterlimit:10;}
	.st14{fill:none;stroke:#000000;stroke-width:4;stroke-miterlimit:10;}
	.st15{fill:none;stroke:#3B4F66;stroke-width:1.2781;stroke-miterlimit:10;}
	.st16{fill:none;stroke:#C6986B;stroke-miterlimit:10;}
	.st17{fill:#263447;}
	.st18{fill:#2A394D;}
	.st19{fill:#243042;}
	.st20{fill:none;stroke:#FFFFFF;stroke-width:0.4929;stroke-miterlimit:10;}
	.st21{fill:none;stroke:#FFFFFF;stroke-width:1.7363;stroke-linecap:round;stroke-linejoin:round;stroke-miterlimit:10;}
	.st22{fill:none;stroke:#FFFFFF;stroke-width:2;stroke-linecap:round;stroke-linejoin:round;stroke-miterlimit:10;}
	.st23{fill:none;stroke:#FFFFFF;stroke-width:1.646;stroke-linecap:round;stroke-linejoin:round;stroke-miterlimit:10;}
	.st24{fill:none;stroke:#C6986B;stroke-width:0.8682;stroke-linecap:round;stroke-linejoin:round;}
	.st25{fill:none;stroke:#C6986B;stroke-linecap:round;stroke-linejoin:round;}
	.st26{clip-path:url(#SVGID_10_);}
	.st27{opacity:0.7;fill:url(#SVGID_11_);}
	.st28{clip-path:url(#SVGID_13_);}
	.st29{fill:#909090;}
	.st30{fill:none;stroke:#FFFFFF;stroke-width:0.8255;stroke-linecap:round;stroke-linejoin:round;stroke-miterlimit:10;}
	.st31{fill:none;stroke:#FFFFFF;stroke-linecap:round;stroke-linejoin:round;stroke-miterlimit:10;}
	.st32{fill:none;stroke:#FFFFFF;stroke-width:0.7826;stroke-linecap:round;stroke-linejoin:round;stroke-miterlimit:10;}
	.st33{fill:none;stroke:#C6986B;stroke-width:0.4128;stroke-linecap:round;stroke-linejoin:round;}
	.st34{clip-path:url(#SVGID_15_);}
	.st35{fill:#808080;}
	.st36{fill:#AAAAAA;}
	.st37{clip-path:url(#SVGID_17_);}
	.st38{clip-path:url(#SVGID_19_);}
	.st39{opacity:0.82;fill:#222D40;}
	.st40{fill:#DDDDDD;}
	.st41{opacity:0.9;fill:url(#SVGID_20_);}
	.st42{opacity:0.9;fill:url(#SVGID_25_);}
	.st43{opacity:0.9;fill:url(#SVGID_28_);}
</style>
<g id="Layer_4">
</g>
<g id="Layer_5">
	<g>
		<g>
			<path class="st5" d="M289.2,172.1c3,0.4,6.2-0.2,8.4-1.6c2.4-1.5,1.5-3.4,0.8-5c-0.4-0.8-0.8-1.6-0.8-2.4c0-0.7,0.3-1.5,0.7-2.3
				c0.8-1.7,1.8-3.8-1.4-5.6c-3.6-2-9.3-1.9-12.8,0.2l-4.8,3l0,0l-6,3.8l-4-2.2l10.8-6.8c3.4-2.1,3.3-5.5-0.4-7.5
				c-2.6-1.4-5.7-0.9-8.5-0.4c-1.3,0.2-2.7,0.5-4.1,0.5c-1.2,0-2.6-0.2-4-0.4c-2.9-0.5-6.4-1.1-9.5,0.9c-2.2,1.4-2.9,3.3-2.1,5
				c-3-0.4-6.2,0.2-8.4,1.6c-2.4,1.5-1.5,3.4-0.8,5c0.4,0.8,0.8,1.6,0.8,2.4c0,0.7-0.3,1.5-0.7,2.3c-0.8,1.7-1.8,3.8,1.4,5.6
				c3.6,2,9.3,1.9,12.8-0.2l4.8-3l5.9-3.7l4,2.2l-10.7,6.7c-3.4,2.1-3.2,5.5,0.4,7.5c2.6,1.4,5.7,0.9,8.5,0.4
				c1.3-0.2,2.7-0.5,4.1-0.5c1.2,0,2.6,0.2,4,0.4c2.9,0.5,6.4,1.1,9.5-0.9C289.3,175.7,290,173.8,289.2,172.1z M272.9,155.4
				l-18.1,11.4c-2.4,1.5-6.5,1.6-9.1,0.2c-1.9-1.1-1.5-2.2-0.7-4c0.4-0.9,0.9-1.8,0.8-2.8c0-1-0.5-1.9-0.9-2.8
				c-0.9-1.9-1.3-3,0.9-3.9c2.7-1.1,6.2-0.9,8.6,0.4l3.2,1.8l3,1.7l1.9-1.2l-6.5-3.6c-2.5-1.4-2.7-3.9-0.3-5.4
				c1.8-1.1,3.8-0.9,6.7-0.4c1.5,0.3,3.1,0.5,4.8,0.5c1.7,0,3.2-0.3,4.7-0.6c3.2-0.5,5-0.8,6.5,0.5c1.8,1.6,1.4,3.7-0.8,5.1
				L272.9,155.4z M278.3,176.5c-1.5-0.3-3.1-0.5-4.8-0.5c-1.7,0-3.2,0.3-4.7,0.6c-3.2,0.5-5,0.8-6.5-0.5c-1.8-1.6-1.4-3.7,0.8-5.1
				l4.8-3l18.1-11.4c2.4-1.5,6.5-1.6,9.1-0.2c1.9,1.1,1.5,2.2,0.7,4c-0.4,0.9-0.9,1.8-0.8,2.8c0,1,0.5,1.9,0.9,2.8
				c0.9,1.9,1.3,3-0.9,3.9c-2.7,1.1-6.2,0.9-8.6-0.4l-6.4-3.6l0,0L278,167l0,0l6.7,3.7c2.5,1.4,2.7,3.9,0.3,5.4
				C283.2,177.2,281.3,177,278.3,176.5z"/>
		</g>
		<path class="st21" d="M484.5,175c0,0,14.9-8.1-1-18.9C467.6,145.3,285.6,41.9,285.6,41.9s-7-3.6-15.5-3.5c-4.8,0-9.4,1.5-13.6,3.8
			L57.4,156.1c0,0-16.1,7.7,0,19.5"/>
		<path class="st21" d="M57.4,175.7C73.5,187.5,257,290.7,257,290.7s12.2,6,27.6-0.4C300,283.9,484.5,175,484.5,175"/>
		<path class="st21" d="M114.6,166.9l155,89.5c0.5,0.3,1.2,0.3,1.7,0l155-89.5c1.1-0.7,1.1-2.3,0-2.9l-155-89.6
			c-0.5-0.3-1.2-0.3-1.7,0l-155,89.6C113.5,164.6,113.5,166.3,114.6,166.9z"/>
		<path class="st21" d="M269.6,50L75.3,162.2c-1.1,0.6-1.1,2.3,0,2.9l194.3,114.1c0.5,0.3,1.2,0.3,1.7,0l194.6-113.7
			c1.1-0.7,1.1-2.3,0-2.9L271.3,50C270.8,49.7,270.1,49.7,269.6,50z"/>
		<polygon class="st21" points="81.4,163.7 270.4,54.5 459.8,164.1 270.4,274.7 		"/>
		<path class="st22" d="M49.7,166.5v135.1c0,0-0.3,11.3,6.7,15.5c9.6,5.8,198.2,114,198.2,114s15.9,9.4,31.3,0.6
			c15.4-8.8,200.5-116.3,200.5-116.3s4.4-2.9,4.4-7.7s-0.1-141-0.1-141"/>
		<path class="st21" d="M50,181.9c0,0,0.2,5.1,8,9.6S254,304.6,254,304.6s16.7,9.2,34.6-1.1c18-10.3,197.1-112.6,197.1-112.6
			s4.7-2.8,5.2-8.4"/>
		<path class="st21" d="M50,254.9c0,0,0.2,5.1,8,9.6C65.8,269,254,377.6,254,377.6s16.7,9.2,34.6-1.1c1.5-0.9,4.3-2.4,8-4.6
			c11.1-6.4,27.8-23.7,50.7-36.8c21.3-12.2,48.5-19.9,70.2-32.3c37.4-21.3,68.2-39,68.2-39s4.7-2.8,5.2-8.4"/>
		<line class="st21" x1="417.5" y1="239.5" x2="289.2" y2="312"/>
		<path class="st21" d="M294.5,382.2c12.7-8.5,24-19,37-28.5c5.1-3.4,10.7-7,16-10.1c4.4-2.5,8.9-4.8,13.6-6.6l20.1-8
			c11.6-4.8,23.3-9.6,34.3-15.8"/>
		<path class="st21" d="M50,292.9c0,0,0.2,5.1,8,9.6C65.8,306.9,254,415.5,254,415.5s16.7,9.2,34.6-1.1c1.5-0.9,4.3-2.4,8-4.6
			c11.1-6.4,27.8-23.7,50.7-36.8c21.3-12.2,48.5-19.9,70.2-32.3c37.4-21.3,68.2-39,68.2-39s4.7-2.8,5.2-8.4"/>
		<line class="st21" x1="335.8" y1="387.5" x2="364.9" y2="370.7"/>
		<line class="st21" x1="327.5" y1="363.8" x2="369.1" y2="339.8"/>
		<g>
			<path class="st6" d="M102.3,77.4c0.4-0.2,0.8-0.4,1.3-0.5c0.4-0.1,0.9-0.2,1.4-0.2c0.5,0,0.9,0.1,1.4,0.2
				c0.5,0.1,0.9,0.3,1.3,0.5c0.3,0.2,0.6,0.4,0.7,0.6c0.2,0.2,0.3,0.4,0.3,0.6c0.1,0.2,0,0.4,0,0.6c-0.1,0.2-0.2,0.4-0.3,0.6
				c0.8-0.2,1.5-0.3,2.2-0.3c0.7,0.1,1.4,0.3,2,0.7c0.5,0.3,0.8,0.6,1,0.9c0.2,0.3,0.3,0.6,0.3,1c0,0.3-0.1,0.6-0.4,0.9
				c-0.2,0.3-0.6,0.6-1,0.8c-0.5,0.3-1,0.5-1.4,0.6c-0.5,0.1-1,0.2-1.4,0.2c-0.5,0-0.9-0.1-1.4-0.2c-0.5-0.1-1-0.2-1.4-0.4l0.3-0.4
				c0-0.1,0.1-0.1,0.2-0.2c0.1,0,0.2-0.1,0.3-0.1c0.1,0,0.2,0,0.3,0c0,0,0.1,0,0.1,0s0.1,0,0.1,0c0.2,0,0.4,0.1,0.7,0.2
				c0.3,0.1,0.5,0.1,0.8,0.1c0.3,0,0.6,0,0.9-0.1c0.3-0.1,0.6-0.2,1-0.4c0.3-0.2,0.5-0.4,0.7-0.6c0.1-0.2,0.2-0.4,0.2-0.6
				c0-0.2-0.1-0.4-0.3-0.6c-0.1-0.2-0.3-0.3-0.5-0.5c-0.3-0.2-0.6-0.3-0.8-0.4c-0.3-0.1-0.6-0.1-0.9-0.1c-0.3,0-0.7,0.1-1.1,0.2
				c-0.4,0.1-0.8,0.3-1.3,0.6l-0.9-0.6c0.4-0.2,0.7-0.4,0.9-0.7c0.2-0.2,0.3-0.4,0.3-0.6c0-0.2,0-0.4-0.2-0.6
				c-0.1-0.2-0.3-0.3-0.6-0.5c-0.3-0.2-0.6-0.3-0.9-0.4c-0.3-0.1-0.6-0.1-0.9-0.1c-0.3,0-0.6,0-0.8,0.1c-0.3,0.1-0.5,0.2-0.7,0.3
				c-0.2,0.1-0.4,0.3-0.5,0.4c-0.1,0.2-0.2,0.3-0.2,0.5c0,0.2,0,0.3,0.1,0.5c0.1,0.2,0.2,0.3,0.4,0.5c0.1,0.1,0.1,0.2,0.1,0.3
				c0,0.1-0.1,0.1-0.2,0.2c0,0,0,0-0.1,0c0,0-0.1,0-0.1,0l-0.7,0.3c-0.4-0.3-0.7-0.6-0.9-0.9c-0.2-0.3-0.3-0.6-0.2-0.9
				c0-0.3,0.1-0.6,0.4-0.9C101.6,77.8,101.9,77.6,102.3,77.4z"/>
			<path class="st6" d="M117.9,74.4c0.9,0.5,1.6,1,2,1.5c0.5,0.5,0.8,1,0.9,1.4c0.1,0.4,0.1,0.8-0.1,1.2c-0.2,0.4-0.5,0.7-1,0.9
				c-0.5,0.3-1,0.5-1.6,0.6c-0.6,0.1-1.3,0.1-2,0c-0.7-0.1-1.5-0.3-2.3-0.6c-0.8-0.3-1.7-0.7-2.5-1.2c-0.9-0.5-1.6-1-2-1.5
				c-0.5-0.5-0.8-1-0.9-1.4c-0.1-0.4-0.1-0.8,0.1-1.2c0.2-0.4,0.5-0.7,1-0.9c0.5-0.3,1-0.5,1.6-0.6c0.6-0.1,1.3-0.1,2,0
				c0.7,0.1,1.5,0.3,2.3,0.6C116.2,73.4,117,73.9,117.9,74.4z M116.7,75.1c-0.8-0.5-1.5-0.8-2.1-1.1c-0.6-0.2-1.2-0.4-1.7-0.5
				s-1-0.1-1.4,0c-0.4,0.1-0.7,0.2-1,0.3c-0.3,0.2-0.5,0.4-0.6,0.6s-0.1,0.5,0,0.8c0.1,0.3,0.4,0.7,0.8,1c0.4,0.4,1,0.8,1.8,1.3
				c0.8,0.5,1.5,0.8,2.1,1.1c0.6,0.2,1.2,0.4,1.7,0.5c0.5,0.1,1,0.1,1.4,0c0.4-0.1,0.7-0.2,1-0.3c0.3-0.2,0.5-0.4,0.6-0.6
				c0.1-0.2,0.1-0.5,0-0.8c-0.1-0.3-0.4-0.7-0.8-1C118.1,76,117.5,75.5,116.7,75.1z"/>
			<path class="st6" d="M125.3,70.1c0.9,0.5,1.6,1,2,1.5s0.8,0.9,0.9,1.4c0.1,0.4,0.1,0.8-0.1,1.2c-0.2,0.4-0.5,0.7-1,0.9
				c-0.5,0.3-1,0.5-1.6,0.6c-0.6,0.1-1.3,0.1-2,0c-0.7-0.1-1.5-0.3-2.3-0.6c-0.8-0.3-1.7-0.7-2.5-1.2c-0.9-0.5-1.6-1-2-1.5
				c-0.5-0.5-0.8-1-0.9-1.4c-0.1-0.4-0.1-0.8,0.1-1.2c0.2-0.4,0.5-0.7,1-0.9c0.5-0.3,1-0.5,1.6-0.6c0.6-0.1,1.3-0.1,2,0
				c0.7,0.1,1.5,0.3,2.3,0.6C123.6,69.1,124.4,69.6,125.3,70.1z M124.1,70.8c-0.8-0.5-1.5-0.8-2.1-1.1c-0.6-0.2-1.2-0.4-1.7-0.5
				c-0.5-0.1-1-0.1-1.4,0c-0.4,0.1-0.7,0.2-1,0.3c-0.3,0.2-0.5,0.4-0.6,0.6c-0.1,0.2-0.1,0.5,0,0.8c0.1,0.3,0.4,0.7,0.8,1
				c0.4,0.4,1,0.8,1.8,1.3c0.8,0.5,1.5,0.8,2.1,1.1c0.6,0.2,1.2,0.4,1.7,0.5c0.5,0.1,1,0.1,1.4,0s0.7-0.2,1-0.3
				c0.3-0.2,0.5-0.4,0.6-0.6c0.1-0.2,0.1-0.5,0-0.8c-0.1-0.3-0.4-0.7-0.8-1C125.5,71.7,124.9,71.2,124.1,70.8z"/>
			<path class="st6" d="M134.1,70.9l-7.1-4.3l0.7-0.4c0.2-0.1,0.4-0.1,0.6,0l0.8,0.4c-0.1-0.3-0.1-0.7,0-0.9
				c0.1-0.3,0.3-0.6,0.7-0.8c0.4-0.3,0.9-0.4,1.5-0.4c0.5,0,1.1,0.1,1.7,0.3c-0.2-0.2-0.3-0.4-0.3-0.6s0-0.4,0-0.6
				c0.1-0.2,0.2-0.3,0.3-0.5c0.1-0.2,0.3-0.3,0.5-0.4c0.3-0.2,0.7-0.3,1.1-0.4c0.4-0.1,0.8-0.1,1.2-0.1c0.4,0,0.8,0.1,1.3,0.3
				c0.4,0.1,0.9,0.3,1.3,0.6l4.5,2.7l-1.1,0.7l-4.5-2.7c-0.6-0.3-1.1-0.5-1.6-0.6c-0.5,0-1,0.1-1.4,0.3c-0.2,0.1-0.3,0.2-0.4,0.4
				c-0.1,0.1-0.1,0.3-0.1,0.5c0,0.2,0.1,0.3,0.2,0.5c0.1,0.2,0.3,0.3,0.6,0.5l4.5,2.7l-1.1,0.7l-4.5-2.7c-0.6-0.3-1.1-0.5-1.6-0.6
				c-0.5,0-0.9,0-1.3,0.3c-0.3,0.2-0.5,0.4-0.5,0.6c-0.1,0.2-0.1,0.5,0,0.8l5.3,3.2L134.1,70.9z"/>
			<path class="st6" d="M144.6,64.9l-7.1-4.3l0.7-0.4c0.2-0.1,0.4-0.1,0.6,0l0.8,0.4c-0.1-0.3-0.1-0.6,0-0.9
				c0.1-0.3,0.3-0.6,0.7-0.8c0.4-0.3,0.9-0.4,1.5-0.4c0.5,0,1.1,0.1,1.7,0.3c-0.2-0.2-0.3-0.4-0.3-0.6c0-0.2,0-0.4,0-0.6
				c0.1-0.2,0.2-0.3,0.3-0.5s0.3-0.3,0.5-0.4c0.3-0.2,0.7-0.3,1.1-0.4c0.4-0.1,0.8-0.1,1.2-0.1c0.4,0,0.8,0.1,1.3,0.3
				c0.4,0.1,0.9,0.3,1.3,0.6l4.5,2.7l-1.1,0.7l-4.5-2.7c-0.6-0.3-1.1-0.5-1.6-0.6c-0.5,0-1,0.1-1.4,0.3c-0.2,0.1-0.3,0.2-0.4,0.4
				c-0.1,0.1-0.1,0.3-0.1,0.5c0,0.2,0.1,0.3,0.2,0.5c0.1,0.2,0.3,0.3,0.6,0.5l4.5,2.7l-1.1,0.7l-4.5-2.7c-0.6-0.3-1.1-0.5-1.6-0.6
				c-0.5,0-0.9,0-1.3,0.3c-0.3,0.2-0.5,0.4-0.5,0.6c-0.1,0.2-0.1,0.5,0,0.8l5.3,3.2L144.6,64.9z"/>
		</g>
		<g>
			<path class="st6" d="M14.6,264.2l0-2.3l-7.1,0.1c-0.2,0-0.4,0-0.6,0l1.6,1.9c0,0,0.1,0.1,0.1,0.1c0,0,0,0.1,0,0.1
				c0,0.1,0,0.1,0,0.2c0,0.1-0.1,0.1-0.1,0.1L7.8,265l-2.7-3.1l0-1.1l9.5-0.2l0-2.1l1,0l0,5.7L14.6,264.2z"/>
			<path class="st6" d="M11.8,251.1l0-1.6l0.7,0c0.1,0,0.1,0,0.2,0.1c0.1,0,0.1,0.1,0.1,0.2l0,1.3l2.7-0.1l0,1.2l-2.7,0.1l0,4.7
				c0,0.1,0,0.2-0.1,0.3c-0.1,0.1-0.1,0.1-0.2,0.1l-0.7,0.1l-6.8-5l0-1.2L11.8,251.1z M7.5,252.4c-0.1,0-0.3,0-0.4,0
				c-0.1,0-0.3,0-0.5,0l5.2,3.7l0-3.8L7.5,252.4z"/>
			<path class="st6" d="M10.3,241.2c0.9,0,1.7,0.1,2.4,0.3c0.7,0.2,1.2,0.4,1.7,0.8c0.4,0.3,0.8,0.7,1,1.2c0.2,0.5,0.3,1,0.3,1.5
				c0,0.5-0.1,1-0.3,1.5c-0.2,0.5-0.5,0.9-1,1.2c-0.4,0.4-1,0.6-1.7,0.8c-0.7,0.2-1.5,0.3-2.4,0.3c-0.9,0-1.7-0.1-2.4-0.2
				c-0.7-0.2-1.2-0.4-1.7-0.8c-0.4-0.3-0.8-0.7-1-1.2c-0.2-0.5-0.3-1-0.3-1.5c0-0.5,0.1-1,0.3-1.5c0.2-0.5,0.5-0.9,1-1.2
				c0.4-0.4,1-0.6,1.7-0.8C8.6,241.3,9.4,241.2,10.3,241.2z M10.3,242.5c-0.8,0-1.5,0.1-2,0.2c-0.5,0.1-1,0.3-1.3,0.6
				c-0.3,0.2-0.6,0.5-0.7,0.8c-0.1,0.3-0.2,0.6-0.2,0.9c0,0.3,0.1,0.6,0.2,0.9c0.1,0.3,0.4,0.6,0.7,0.8c0.3,0.2,0.8,0.4,1.3,0.5
				c0.5,0.1,1.2,0.2,2,0.2c0.8,0,1.5-0.1,2-0.2c0.5-0.1,1-0.3,1.3-0.6c0.3-0.2,0.6-0.5,0.7-0.8c0.1-0.3,0.2-0.6,0.2-0.9
				c0-0.3-0.1-0.6-0.2-0.9c-0.1-0.3-0.4-0.6-0.7-0.8c-0.3-0.2-0.8-0.4-1.3-0.5C11.8,242.6,11.1,242.5,10.3,242.5z"/>
			<path class="st6" d="M15.5,236.7l-7.4,0.1l0-0.8c0-0.2,0.1-0.3,0.3-0.4l0.8-0.1c-0.3-0.3-0.6-0.6-0.8-0.9
				c-0.2-0.3-0.3-0.7-0.3-1.2c0-0.5,0.1-0.9,0.4-1.2c0.3-0.3,0.7-0.6,1.1-0.7c-0.3-0.1-0.5-0.2-0.7-0.4c-0.2-0.2-0.4-0.4-0.5-0.6
				c-0.1-0.2-0.2-0.4-0.3-0.7c-0.1-0.2-0.1-0.5-0.1-0.7c0-0.4,0.1-0.7,0.2-1.1c0.1-0.3,0.3-0.6,0.5-0.8c0.2-0.2,0.5-0.4,0.9-0.5
				c0.3-0.1,0.7-0.2,1.2-0.2l4.7-0.1l0,1.3l-4.7,0.1c-0.6,0-1,0.1-1.3,0.4c-0.3,0.3-0.4,0.6-0.4,1.1c0,0.2,0,0.4,0.1,0.6
				c0.1,0.2,0.2,0.4,0.3,0.5c0.1,0.1,0.3,0.3,0.6,0.3c0.2,0.1,0.5,0.1,0.8,0.1l4.7-0.1l0,1.3l-4.7,0.1c-0.6,0-1,0.1-1.3,0.4
				c-0.3,0.2-0.4,0.6-0.4,1.1c0,0.3,0.1,0.6,0.3,0.9c0.2,0.3,0.4,0.5,0.7,0.8l5.5-0.1L15.5,236.7z"/>
			<path class="st6" d="M15.5,224.6l-7.4,0.1l0-0.8c0-0.2,0.1-0.3,0.3-0.4l0.8-0.1c-0.3-0.3-0.6-0.6-0.8-0.9
				c-0.2-0.3-0.3-0.7-0.3-1.2c0-0.5,0.1-0.9,0.4-1.2s0.7-0.6,1.1-0.7c-0.3-0.1-0.5-0.2-0.7-0.4c-0.2-0.2-0.4-0.4-0.5-0.6
				c-0.1-0.2-0.2-0.4-0.3-0.7C8,217.6,8,217.3,8,217.1c0-0.4,0.1-0.7,0.2-1.1c0.1-0.3,0.3-0.6,0.5-0.8c0.2-0.2,0.5-0.4,0.9-0.5
				c0.3-0.1,0.7-0.2,1.2-0.2l4.7-0.1l0,1.3l-4.7,0.1c-0.6,0-1,0.1-1.3,0.4c-0.3,0.3-0.4,0.6-0.4,1.1c0,0.2,0,0.4,0.1,0.6
				c0.1,0.2,0.2,0.4,0.3,0.5c0.1,0.1,0.3,0.3,0.6,0.3c0.2,0.1,0.5,0.1,0.8,0.1l4.7-0.1l0,1.3l-4.7,0.1c-0.6,0-1,0.1-1.3,0.4
				c-0.3,0.2-0.4,0.6-0.4,1.1c0,0.3,0.1,0.6,0.3,0.9c0.2,0.3,0.4,0.5,0.7,0.8l5.5-0.1L15.5,224.6z"/>
		</g>
		
			<ellipse transform="matrix(0.8564 -0.5163 0.5163 0.8564 -116.3651 119.2584)" class="st21" cx="156.2" cy="268.8" rx="5.2" ry="8.8"/>
		<line class="st22" x1="256.7" y1="317.5" x2="256.7" y2="363.5"/>
		<line class="st22" x1="57.7" y1="205.5" x2="57.7" y2="251.5"/>
		<line class="st22" x1="483.7" y1="204.5" x2="483.7" y2="250.5"/>
		<line class="st22" x1="256.7" y1="386.5" x2="256.7" y2="407.5"/>
		<line class="st22" x1="55.7" y1="272.5" x2="55.7" y2="290.5"/>
		<line class="st22" x1="483.7" y1="273.5" x2="483.7" y2="294.5"/>
		<line class="st22" x1="249.7" y1="327.5" x2="249.7" y2="345.5"/>
		<line class="st22" x1="249.7" y1="386.5" x2="249.7" y2="399.5"/>
		<line class="st23" x1="57.7" y1="309.8" x2="72.4" y2="318.9"/>
		<line class="st23" x1="255.4" y1="424.1" x2="243.7" y2="417.4"/>
		<line class="st23" x1="57.4" y1="183.8" x2="66.3" y2="188.2"/>
		<line class="st23" x1="255.9" y1="297.8" x2="249.3" y2="294.1"/>
		<line class="st21" x1="483.6" y1="184.1" x2="476.6" y2="188"/>
		<line class="st21" x1="484.5" y1="308.3" x2="479.7" y2="311.3"/>
		<g>
			<g>
				<line class="st24" x1="43.3" y1="139.7" x2="247.6" y2="24.5"/>
				<g>
					<polygon class="st6" points="45.7,142 39.2,142 42.5,136.4 					"/>
				</g>
				<g>
					<polygon class="st6" points="248.4,27.8 251.7,22.2 245.2,22.2 					"/>
				</g>
			</g>
		</g>
		<g>
			<path class="st6" d="M390.6,51.8c0.4,0.2,0.7,0.5,0.9,0.7c0.2,0.3,0.3,0.5,0.4,0.8c0,0.3,0,0.5-0.2,0.8c-0.2,0.3-0.4,0.5-0.8,0.8
				c-0.3,0.2-0.6,0.3-0.9,0.5c-0.3,0.1-0.6,0.2-0.9,0.2c-0.3,0-0.6,0-0.9,0c-0.3,0-0.6-0.1-0.9-0.2c0.4,0.4,0.6,0.9,0.6,1.3
				c-0.1,0.4-0.4,0.8-0.9,1.2c-0.4,0.3-0.9,0.5-1.4,0.6c-0.5,0.1-1,0.2-1.5,0.2c-0.5,0-1-0.1-1.5-0.2c-0.5-0.1-1-0.3-1.4-0.6
				c-0.5-0.3-0.8-0.6-1.1-0.8c-0.2-0.3-0.3-0.6-0.4-0.8c0-0.3,0-0.6,0.2-0.8c0.1-0.3,0.3-0.6,0.6-0.9l0.7,0.1c0.1,0,0.2,0.1,0.3,0.1
				c0.1,0,0.1,0.1,0.2,0.2c0,0.1,0,0.1,0,0.2c0,0,0,0,0,0.1c0,0,0,0,0,0.1c-0.1,0.1-0.1,0.2-0.2,0.4c-0.1,0.2-0.1,0.3-0.1,0.5
				c0,0.2,0.1,0.4,0.2,0.5s0.3,0.4,0.7,0.6c0.3,0.2,0.7,0.3,1,0.4c0.3,0.1,0.7,0.1,1,0.1c0.3,0,0.6-0.1,0.9-0.2
				c0.3-0.1,0.5-0.2,0.7-0.3c0.2-0.2,0.4-0.3,0.6-0.5c0.1-0.2,0.2-0.4,0.2-0.6c0-0.2-0.1-0.4-0.4-0.6c-0.2-0.2-0.6-0.5-1-0.8
				l0.8-0.6c0.4,0.2,0.8,0.4,1.1,0.5c0.4,0.1,0.7,0.2,1,0.2c0.3,0,0.6,0,0.9-0.1c0.3-0.1,0.5-0.2,0.8-0.4c0.3-0.2,0.5-0.4,0.6-0.5
				c0.1-0.2,0.2-0.4,0.1-0.5c0-0.2-0.1-0.3-0.2-0.5c-0.1-0.2-0.3-0.3-0.5-0.4c-0.2-0.1-0.5-0.2-0.7-0.3c-0.3-0.1-0.5-0.1-0.8-0.1
				c-0.3,0-0.5,0-0.8,0.1c-0.3,0.1-0.5,0.1-0.8,0.2c-0.2,0.1-0.3,0.1-0.4,0.1c-0.1,0-0.2,0-0.3-0.1c0,0,0,0-0.1,0c0,0,0,0-0.1-0.1
				l-0.5-0.4c0.5-0.2,1-0.4,1.5-0.5c0.5-0.1,1-0.2,1.5-0.2c0.5,0,0.9,0.1,1.4,0.2C389.8,51.4,390.3,51.6,390.6,51.8z"/>
			<path class="st6" d="M396.5,60.9c-0.8,0.5-1.6,0.9-2.3,1.2c-0.8,0.3-1.5,0.5-2.2,0.6c-0.7,0.1-1.3,0.1-1.9,0
				c-0.6-0.1-1.1-0.3-1.6-0.6c-0.5-0.3-0.8-0.6-1-0.9c-0.2-0.4-0.3-0.7-0.2-1.2s0.3-0.9,0.8-1.4c0.4-0.5,1-1,1.8-1.5
				s1.6-0.9,2.3-1.2c0.8-0.3,1.5-0.5,2.2-0.6s1.3-0.1,1.9,0c0.6,0.1,1.1,0.3,1.6,0.6c0.5,0.3,0.8,0.6,1,0.9c0.2,0.4,0.3,0.8,0.2,1.2
				c-0.1,0.4-0.3,0.9-0.8,1.4C397.9,59.9,397.3,60.4,396.5,60.9z M395.3,60.2c0.7-0.5,1.2-0.9,1.6-1.3c0.4-0.4,0.6-0.7,0.7-1
				c0.1-0.3,0.1-0.6-0.1-0.8c-0.1-0.2-0.3-0.4-0.6-0.6s-0.6-0.3-1-0.3c-0.4-0.1-0.8-0.1-1.3,0c-0.5,0.1-1,0.2-1.6,0.5
				c-0.6,0.2-1.2,0.6-1.9,1.1c-0.7,0.5-1.2,0.9-1.6,1.3c-0.4,0.4-0.6,0.7-0.7,1c-0.1,0.3-0.1,0.6,0.1,0.8c0.1,0.2,0.3,0.4,0.6,0.6
				s0.6,0.3,1,0.3c0.4,0.1,0.8,0.1,1.3,0s1-0.2,1.6-0.5C393.9,61.1,394.6,60.7,395.3,60.2z"/>
			<path class="st6" d="M403.9,65.1c-0.8,0.5-1.6,0.9-2.3,1.2c-0.8,0.3-1.5,0.5-2.2,0.6c-0.7,0.1-1.3,0.1-1.9,0
				c-0.6-0.1-1.1-0.3-1.6-0.6c-0.5-0.3-0.8-0.6-1-0.9c-0.2-0.4-0.3-0.7-0.2-1.2c0.1-0.4,0.3-0.9,0.8-1.4c0.4-0.5,1-1,1.8-1.5
				s1.6-0.9,2.3-1.2c0.8-0.3,1.5-0.5,2.2-0.6s1.3-0.1,1.9,0c0.6,0.1,1.1,0.3,1.6,0.6c0.5,0.3,0.8,0.6,1,0.9c0.2,0.4,0.3,0.7,0.2,1.2
				c-0.1,0.4-0.3,0.9-0.8,1.4C405.3,64.1,404.7,64.6,403.9,65.1z M402.7,64.5c0.7-0.5,1.2-0.9,1.6-1.3c0.4-0.4,0.6-0.7,0.7-1
				c0.1-0.3,0.1-0.6-0.1-0.8s-0.3-0.4-0.6-0.6c-0.3-0.2-0.6-0.3-1-0.3c-0.4-0.1-0.8-0.1-1.3,0c-0.5,0.1-1,0.2-1.6,0.5
				c-0.6,0.2-1.2,0.6-1.9,1.1c-0.7,0.5-1.2,0.9-1.6,1.3c-0.4,0.4-0.6,0.7-0.7,1c-0.1,0.3-0.1,0.6,0.1,0.8c0.1,0.2,0.3,0.4,0.6,0.6
				c0.3,0.2,0.6,0.3,1,0.3c0.4,0.1,0.8,0.1,1.3,0c0.5-0.1,1-0.2,1.6-0.5C401.4,65.3,402,64.9,402.7,64.5z"/>
			<path class="st6" d="M403.1,70.4l6.5-4.3l0.7,0.4c0.2,0.1,0.2,0.2,0.1,0.3l-0.6,0.5c0.5-0.1,1-0.1,1.5,0c0.5,0,0.9,0.2,1.3,0.4
				c0.4,0.3,0.7,0.5,0.7,0.9c0,0.3-0.1,0.6-0.4,1c0.3-0.1,0.6-0.2,1-0.2c0.3,0,0.6,0,0.9,0c0.3,0,0.6,0.1,0.8,0.2
				c0.3,0.1,0.5,0.2,0.7,0.3c0.3,0.2,0.6,0.4,0.8,0.6c0.2,0.2,0.2,0.5,0.2,0.7c0,0.2-0.1,0.5-0.3,0.8c-0.2,0.3-0.5,0.5-0.9,0.8
				l-4.1,2.7l-1.1-0.7l4.1-2.7c0.5-0.3,0.8-0.7,0.8-1c0-0.3-0.2-0.6-0.6-0.8c-0.2-0.1-0.4-0.2-0.6-0.2s-0.5-0.1-0.7-0.1
				c-0.3,0-0.5,0.1-0.8,0.1c-0.3,0.1-0.5,0.2-0.8,0.4l-4.1,2.7l-1.1-0.7l4.1-2.7c0.5-0.3,0.8-0.7,0.9-1c0-0.3-0.1-0.5-0.5-0.8
				c-0.3-0.2-0.6-0.3-1-0.3c-0.4,0-0.8,0-1.3,0l-4.8,3.2L403.1,70.4z"/>
			<path class="st6" d="M413.7,76.4l6.5-4.3l0.7,0.4c0.2,0.1,0.2,0.2,0.1,0.3l-0.6,0.5c0.5-0.1,1-0.1,1.5,0c0.5,0,0.9,0.2,1.3,0.4
				c0.4,0.3,0.7,0.5,0.7,0.9c0,0.3-0.1,0.6-0.4,1c0.3-0.1,0.6-0.2,1-0.2c0.3,0,0.6,0,0.9,0c0.3,0,0.6,0.1,0.8,0.2
				c0.3,0.1,0.5,0.2,0.7,0.3c0.3,0.2,0.6,0.4,0.8,0.6c0.2,0.2,0.2,0.5,0.2,0.7c0,0.2-0.1,0.5-0.3,0.8c-0.2,0.3-0.5,0.5-0.9,0.8
				l-4.1,2.7l-1.1-0.7l4.1-2.7c0.5-0.3,0.8-0.7,0.8-1c0-0.3-0.2-0.6-0.6-0.8c-0.2-0.1-0.4-0.2-0.6-0.2s-0.5-0.1-0.7-0.1
				c-0.3,0-0.5,0.1-0.8,0.1c-0.3,0.1-0.5,0.2-0.8,0.4l-4.1,2.7l-1.1-0.7l4.1-2.7c0.5-0.3,0.8-0.7,0.9-1c0-0.3-0.1-0.5-0.5-0.8
				c-0.3-0.2-0.6-0.3-1-0.3c-0.4,0-0.8,0-1.3,0l-4.8,3.2L413.7,76.4z"/>
		</g>
		<g>
			<g>
				<line class="st24" x1="499.4" y1="137.2" x2="293.3" y2="22"/>
				<g>
					<polygon class="st6" points="500.2,133.9 503.5,139.5 497,139.6 					"/>
				</g>
				<g>
					<polygon class="st6" points="295.7,19.7 289.2,19.8 292.6,25.3 					"/>
				</g>
			</g>
		</g>
		<g>
			<g>
				<line class="st25" x1="28.2" y1="170.5" x2="28.2" y2="300.5"/>
				<g>
					<polygon class="st6" points="24.8,171.5 28.1,165.9 31.3,171.5 					"/>
				</g>
				<g>
					<polygon class="st6" points="24.8,299.5 28.1,305.1 31.3,299.5 					"/>
				</g>
			</g>
		</g>
	</g>
</g>
</svg>
