<svg id="Layer_5" data-name="Layer 5" xmlns="http://www.w3.org/2000/svg" width="227" height="46" viewBox="0 0 227 46"><defs><style>.cls-1{fill:none;stroke:#fff;stroke-miterlimit:10;stroke-width:2px;}.cls-1,.cls-2{opacity:0.4;}.cls-3{fill:#fff;}</style></defs><title>tba</title><rect class="cls-1" x="1" y="1" width="225" height="44" rx="5.34" ry="5.34"/><g class="cls-2"><path class="cls-3" d="M39,17.06V18.2H35.79v8.86H34.44V18.2H31.2V17.06H39Z"/><path class="cls-3" d="M51.28,22.06a5.77,5.77,0,0,1-.36,2.06,4.72,4.72,0,0,1-1,1.62,4.48,4.48,0,0,1-1.56,1,5.61,5.61,0,0,1-4,0,4.49,4.49,0,0,1-1.56-1,4.73,4.73,0,0,1-1-1.62,6.14,6.14,0,0,1,0-4.12,4.78,4.78,0,0,1,1-1.62,4.52,4.52,0,0,1,1.56-1.06,5.55,5.55,0,0,1,4,0,4.51,4.51,0,0,1,1.56,1.06,4.77,4.77,0,0,1,1,1.62A5.77,5.77,0,0,1,51.28,22.06Zm-1.39,0a5.09,5.09,0,0,0-.25-1.65,3.52,3.52,0,0,0-.71-1.24,3.09,3.09,0,0,0-1.12-.78,4.06,4.06,0,0,0-2.92,0,3.13,3.13,0,0,0-1.12.78,3.49,3.49,0,0,0-.71,1.24,5.56,5.56,0,0,0,0,3.3,3.48,3.48,0,0,0,.71,1.23,3.07,3.07,0,0,0,1.12.77,4.11,4.11,0,0,0,2.92,0,3,3,0,0,0,1.12-.77,3.51,3.51,0,0,0,.71-1.23A5.06,5.06,0,0,0,49.89,22.06Z"/><path class="cls-3" d="M60.29,27.06v-10h3.19a6.08,6.08,0,0,1,1.59.18,3.07,3.07,0,0,1,1.1.52,2,2,0,0,1,.63.82A2.78,2.78,0,0,1,67,19.67a2.23,2.23,0,0,1-.11.71,2.08,2.08,0,0,1-.35.63,2.46,2.46,0,0,1-.59.52,3.25,3.25,0,0,1-.83.38,3.08,3.08,0,0,1,1.65.79,2.06,2.06,0,0,1,.56,1.51,2.81,2.81,0,0,1-.23,1.16,2.48,2.48,0,0,1-.68.9,3.2,3.2,0,0,1-1.1.58,5,5,0,0,1-1.49.21H60.29Zm1.35-5.52h1.79a3.45,3.45,0,0,0,1-.13,2,2,0,0,0,.69-0.35,1.37,1.37,0,0,0,.41-0.54,1.79,1.79,0,0,0,.13-0.69,1.53,1.53,0,0,0-.53-1.29,2.68,2.68,0,0,0-1.65-.41H61.64v3.41Zm0,1V26H63.8a3.28,3.28,0,0,0,1-.13,1.84,1.84,0,0,0,.68-0.37,1.44,1.44,0,0,0,.39-0.57A2,2,0,0,0,66,24.18,1.5,1.5,0,0,0,65.45,23a2.57,2.57,0,0,0-1.66-.45H61.64Z"/><path class="cls-3" d="M77.71,17.06v1.1h-4.8v3.32h3.89v1.06H72.91V26h4.8v1.1H71.54v-10h6.16Z"/><path class="cls-3" d="M95,27.06H94A0.45,0.45,0,0,1,93.69,27a0.55,0.55,0,0,1-.17-0.23l-0.93-2.41H88.11l-0.93,2.41A0.54,0.54,0,0,1,87,27a0.44,0.44,0,0,1-.29.1h-1l4-10H91Zm-6.55-3.71h3.73l-1.57-4.07a7.59,7.59,0,0,1-.3-0.94q-0.08.29-.15,0.53c0,0.16-.1.3-0.14,0.42Z"/><path class="cls-3" d="M99.5,17.11a0.7,0.7,0,0,1,.2.18l5.79,7.53c0-.12,0-0.24,0-0.35s0-.22,0-0.33V17.06h1.19v10H106a0.58,0.58,0,0,1-.27-0.06,0.68,0.68,0,0,1-.21-0.19l-5.78-7.53c0,0.12,0,.23,0,0.34s0,0.21,0,.31v7.12H98.53v-10h0.7A0.61,0.61,0,0,1,99.5,17.11Z"/><path class="cls-3" d="M112.28,17.11a0.7,0.7,0,0,1,.2.18l5.79,7.53c0-.12,0-0.24,0-0.35s0-.22,0-0.33V17.06h1.19v10h-0.68a0.58,0.58,0,0,1-.27-0.06,0.68,0.68,0,0,1-.21-0.19l-5.78-7.53c0,0.12,0,.23,0,0.34s0,0.21,0,.31v7.12h-1.19v-10H112A0.61,0.61,0,0,1,112.28,17.11Z"/><path class="cls-3" d="M133.37,22.06a5.77,5.77,0,0,1-.36,2.06,4.72,4.72,0,0,1-1,1.62,4.48,4.48,0,0,1-1.56,1,5.61,5.61,0,0,1-4,0,4.49,4.49,0,0,1-1.56-1,4.73,4.73,0,0,1-1-1.62,6.14,6.14,0,0,1,0-4.12,4.78,4.78,0,0,1,1-1.62,4.52,4.52,0,0,1,1.56-1.06,5.55,5.55,0,0,1,4,0A4.51,4.51,0,0,1,132,18.38,4.77,4.77,0,0,1,133,20,5.77,5.77,0,0,1,133.37,22.06Zm-1.39,0a5.09,5.09,0,0,0-.25-1.65,3.52,3.52,0,0,0-.71-1.24,3.09,3.09,0,0,0-1.12-.78,4.06,4.06,0,0,0-2.92,0,3.13,3.13,0,0,0-1.12.78,3.49,3.49,0,0,0-.71,1.24,5.56,5.56,0,0,0,0,3.3,3.48,3.48,0,0,0,.71,1.23,3.07,3.07,0,0,0,1.12.77,4.11,4.11,0,0,0,2.92,0,3,3,0,0,0,1.12-.77,3.51,3.51,0,0,0,.71-1.23A5.06,5.06,0,0,0,132,22.06Z"/><path class="cls-3" d="M141.34,26a2.79,2.79,0,0,0,1.11-.21,2.34,2.34,0,0,0,.83-0.59,2.56,2.56,0,0,0,.52-0.9,3.54,3.54,0,0,0,.18-1.15V17.06h1.35v6.08a4.56,4.56,0,0,1-.28,1.6,3.73,3.73,0,0,1-.79,1.28,3.59,3.59,0,0,1-1.25.85,4.63,4.63,0,0,1-3.32,0,3.63,3.63,0,0,1-1.26-.85,3.71,3.71,0,0,1-.79-1.28,4.56,4.56,0,0,1-.28-1.6V17.06h1.35v6.07a3.57,3.57,0,0,0,.18,1.15,2.58,2.58,0,0,0,.52.9,2.35,2.35,0,0,0,.83.59A2.76,2.76,0,0,0,141.34,26Z"/><path class="cls-3" d="M150.84,17.11a0.7,0.7,0,0,1,.2.18l5.79,7.53c0-.12,0-0.24,0-0.35s0-.22,0-0.33V17.06H158v10H157.3A0.58,0.58,0,0,1,157,27a0.67,0.67,0,0,1-.21-0.19L151,19.29c0,0.12,0,.23,0,0.34s0,0.21,0,.31v7.12h-1.19v-10h0.7A0.6,0.6,0,0,1,150.84,17.11Z"/><path class="cls-3" d="M169.7,25a0.28,0.28,0,0,1,.2.09l0.53,0.58a4.28,4.28,0,0,1-1.49,1.11,5.07,5.07,0,0,1-2.11.4,5,5,0,0,1-2-.37,4.28,4.28,0,0,1-1.5-1,4.73,4.73,0,0,1-1-1.62,6,6,0,0,1-.34-2.07,5.67,5.67,0,0,1,.37-2.07,4.74,4.74,0,0,1,1-1.62,4.62,4.62,0,0,1,1.59-1,5.41,5.41,0,0,1,2-.37,4.55,4.55,0,0,1,3.32,1.27l-0.44.62a0.46,0.46,0,0,1-.11.12,0.31,0.31,0,0,1-.18,0,0.35,0.35,0,0,1-.19-0.07l-0.24-.16-0.33-.21a3,3,0,0,0-.45-0.21,3.67,3.67,0,0,0-.6-0.16,4.19,4.19,0,0,0-.79-0.07,3.81,3.81,0,0,0-1.47.28,3.31,3.31,0,0,0-1.15.79,3.57,3.57,0,0,0-.75,1.24,4.74,4.74,0,0,0-.27,1.64,4.83,4.83,0,0,0,.27,1.67,3.67,3.67,0,0,0,.73,1.24,3.1,3.1,0,0,0,1.1.77,3.51,3.51,0,0,0,1.37.27,5.52,5.52,0,0,0,.8-0.05,3.32,3.32,0,0,0,.66-0.16,2.78,2.78,0,0,0,.57-0.28,4.49,4.49,0,0,0,.53-0.41A0.35,0.35,0,0,1,169.7,25Z"/><path class="cls-3" d="M180.6,17.06v1.1h-4.8v3.32h3.89v1.06H175.8V26h4.8v1.1h-6.16v-10h6.16Z"/><path class="cls-3" d="M193.45,22.06a5.63,5.63,0,0,1-.36,2,4.55,4.55,0,0,1-1,1.58,4.47,4.47,0,0,1-1.56,1,5.4,5.4,0,0,1-2,.36h-3.74v-10h3.74a5.42,5.42,0,0,1,2,.36,4.47,4.47,0,0,1,1.56,1,4.59,4.59,0,0,1,1,1.58A5.63,5.63,0,0,1,193.45,22.06Zm-1.39,0a5,5,0,0,0-.25-1.65,3.47,3.47,0,0,0-.71-1.23,3,3,0,0,0-1.12-.77,3.87,3.87,0,0,0-1.46-.26h-2.38V26h2.38A3.85,3.85,0,0,0,190,25.7a3,3,0,0,0,1.12-.76,3.42,3.42,0,0,0,.71-1.22A5,5,0,0,0,192.06,22.06Z"/></g></svg>