<svg id="Layer_5" data-name="Layer 5" xmlns="http://www.w3.org/2000/svg" width="227" height="46" viewBox="0 0 227 46"><defs><style>.cls-1{fill:none;stroke:#222d40;stroke-miterlimit:10;stroke-width:2px;}.cls-1,.cls-2{opacity:0.4;}.cls-3{fill:#222d40;}</style></defs><title>tba</title><rect class="cls-1" x="1" y="1" width="225" height="44" rx="5.34" ry="5.34"/><g class="cls-2"><path class="cls-3" d="M38,19.06V20.2H34.79v8.86H33.44V20.2H30.2V19.06H38Z"/><path class="cls-3" d="M50.28,24.06a5.77,5.77,0,0,1-.36,2.06,4.72,4.72,0,0,1-1,1.62,4.49,4.49,0,0,1-1.56,1,5.61,5.61,0,0,1-4,0,4.49,4.49,0,0,1-1.56-1,4.74,4.74,0,0,1-1-1.62,6.14,6.14,0,0,1,0-4.12,4.78,4.78,0,0,1,1-1.62,4.52,4.52,0,0,1,1.56-1.06,5.56,5.56,0,0,1,4,0,4.51,4.51,0,0,1,1.56,1.06,4.76,4.76,0,0,1,1,1.62A5.77,5.77,0,0,1,50.28,24.06Zm-1.39,0a5.09,5.09,0,0,0-.25-1.65,3.51,3.51,0,0,0-.71-1.24,3.09,3.09,0,0,0-1.12-.78,4.06,4.06,0,0,0-2.92,0,3.13,3.13,0,0,0-1.12.78,3.49,3.49,0,0,0-.71,1.24,5.56,5.56,0,0,0,0,3.3,3.49,3.49,0,0,0,.71,1.23,3.08,3.08,0,0,0,1.12.77,4.11,4.11,0,0,0,2.92,0,3,3,0,0,0,1.12-.77,3.51,3.51,0,0,0,.71-1.23A5.06,5.06,0,0,0,48.89,24.06Z"/><path class="cls-3" d="M59.29,29.06v-10h3.19a6.08,6.08,0,0,1,1.59.18,3.08,3.08,0,0,1,1.1.52,2,2,0,0,1,.63.82A2.78,2.78,0,0,1,66,21.67a2.23,2.23,0,0,1-.11.71,2.07,2.07,0,0,1-.35.63,2.45,2.45,0,0,1-.59.52,3.26,3.26,0,0,1-.83.38,3.09,3.09,0,0,1,1.65.79,2.07,2.07,0,0,1,.56,1.51,2.81,2.81,0,0,1-.23,1.16,2.49,2.49,0,0,1-.68.9,3.19,3.19,0,0,1-1.1.58,4.94,4.94,0,0,1-1.49.21H59.29Zm1.35-5.52h1.79a3.47,3.47,0,0,0,1-.13,2,2,0,0,0,.69-0.35,1.36,1.36,0,0,0,.41-0.54,1.79,1.79,0,0,0,.13-0.69,1.53,1.53,0,0,0-.53-1.29,2.68,2.68,0,0,0-1.65-.41H60.64v3.41Zm0,1V28H62.8a3.29,3.29,0,0,0,1-.13,1.86,1.86,0,0,0,.68-0.37,1.44,1.44,0,0,0,.39-0.57A2,2,0,0,0,65,26.18,1.5,1.5,0,0,0,64.45,25a2.57,2.57,0,0,0-1.66-.45H60.64Z"/><path class="cls-3" d="M76.71,19.06v1.1h-4.8v3.32h3.89v1.06H71.91V28h4.8v1.1H70.54v-10h6.16Z"/><path class="cls-3" d="M94,29.06H93A0.45,0.45,0,0,1,92.69,29a0.56,0.56,0,0,1-.17-0.23l-0.93-2.41H87.11l-0.93,2.41A0.54,0.54,0,0,1,86,29a0.45,0.45,0,0,1-.29.1h-1l4-10H90Zm-6.55-3.71h3.73l-1.57-4.07a7.6,7.6,0,0,1-.3-0.94q-0.08.29-.15,0.53c0,0.16-.1.3-0.14,0.42Z"/><path class="cls-3" d="M98.5,19.1a0.7,0.7,0,0,1,.2.19l5.79,7.53c0-.12,0-0.24,0-0.35s0-.22,0-0.33V19.06h1.19v10H105a0.58,0.58,0,0,1-.27-0.06,0.68,0.68,0,0,1-.21-0.19l-5.78-7.53c0,0.12,0,.23,0,0.34s0,0.21,0,.31v7.12H97.53v-10h0.7A0.61,0.61,0,0,1,98.5,19.1Z"/><path class="cls-3" d="M111.28,19.1a0.7,0.7,0,0,1,.2.19l5.79,7.53c0-.12,0-0.24,0-0.35s0-.22,0-0.33V19.06h1.19v10h-0.68a0.58,0.58,0,0,1-.27-0.06,0.68,0.68,0,0,1-.21-0.19l-5.78-7.53c0,0.12,0,.23,0,0.34s0,0.21,0,.31v7.12h-1.19v-10H111A0.61,0.61,0,0,1,111.28,19.1Z"/><path class="cls-3" d="M132.37,24.06a5.77,5.77,0,0,1-.36,2.06,4.72,4.72,0,0,1-1,1.62,4.49,4.49,0,0,1-1.56,1,5.61,5.61,0,0,1-4,0,4.49,4.49,0,0,1-1.56-1,4.74,4.74,0,0,1-1-1.62,6.14,6.14,0,0,1,0-4.12,4.78,4.78,0,0,1,1-1.62,4.52,4.52,0,0,1,1.56-1.06,5.56,5.56,0,0,1,4,0A4.51,4.51,0,0,1,131,20.38,4.76,4.76,0,0,1,132,22,5.77,5.77,0,0,1,132.37,24.06Zm-1.39,0a5.09,5.09,0,0,0-.25-1.65,3.51,3.51,0,0,0-.71-1.24,3.09,3.09,0,0,0-1.12-.78,4.06,4.06,0,0,0-2.92,0,3.13,3.13,0,0,0-1.12.78,3.49,3.49,0,0,0-.71,1.24,5.56,5.56,0,0,0,0,3.3,3.49,3.49,0,0,0,.71,1.23,3.08,3.08,0,0,0,1.12.77,4.11,4.11,0,0,0,2.92,0,3,3,0,0,0,1.12-.77,3.51,3.51,0,0,0,.71-1.23A5.06,5.06,0,0,0,131,24.06Z"/><path class="cls-3" d="M140.34,28a2.79,2.79,0,0,0,1.11-.21,2.34,2.34,0,0,0,.83-0.59,2.55,2.55,0,0,0,.52-0.9,3.54,3.54,0,0,0,.18-1.15V19.06h1.35v6.08a4.56,4.56,0,0,1-.28,1.6,3.73,3.73,0,0,1-.79,1.28,3.6,3.6,0,0,1-1.25.85,4.64,4.64,0,0,1-3.32,0,3.64,3.64,0,0,1-1.26-.85,3.71,3.71,0,0,1-.79-1.28,4.56,4.56,0,0,1-.28-1.6V19.06h1.35v6.07a3.57,3.57,0,0,0,.18,1.15,2.58,2.58,0,0,0,.52.9,2.35,2.35,0,0,0,.83.59A2.77,2.77,0,0,0,140.34,28Z"/><path class="cls-3" d="M149.84,19.1a0.7,0.7,0,0,1,.2.19l5.79,7.53c0-.12,0-0.24,0-0.35s0-.22,0-0.33V19.06H157v10H156.3A0.58,0.58,0,0,1,156,29a0.67,0.67,0,0,1-.21-0.19L150,21.29c0,0.12,0,.23,0,0.34s0,0.21,0,.31v7.12h-1.19v-10h0.7A0.6,0.6,0,0,1,149.84,19.1Z"/><path class="cls-3" d="M168.7,27a0.28,0.28,0,0,1,.2.09l0.53,0.58a4.28,4.28,0,0,1-1.49,1.11,5.08,5.08,0,0,1-2.11.4,5,5,0,0,1-2-.37,4.28,4.28,0,0,1-1.5-1,4.72,4.72,0,0,1-1-1.61,6,6,0,0,1-.34-2.07,5.67,5.67,0,0,1,.37-2.07,4.74,4.74,0,0,1,1-1.62,4.61,4.61,0,0,1,1.59-1,5.41,5.41,0,0,1,2-.37,4.55,4.55,0,0,1,3.32,1.27l-0.44.62a0.46,0.46,0,0,1-.11.11,0.31,0.31,0,0,1-.18,0,0.35,0.35,0,0,1-.19-0.07l-0.24-.16-0.33-.21a2.9,2.9,0,0,0-.45-0.21,3.67,3.67,0,0,0-.6-0.16,4.15,4.15,0,0,0-.79-0.07,3.81,3.81,0,0,0-1.47.28,3.3,3.3,0,0,0-1.15.79,3.56,3.56,0,0,0-.75,1.24,4.74,4.74,0,0,0-.27,1.64,4.83,4.83,0,0,0,.27,1.67,3.67,3.67,0,0,0,.73,1.24,3.09,3.09,0,0,0,1.1.77,3.51,3.51,0,0,0,1.37.27,5.52,5.52,0,0,0,.8-0.05,3.29,3.29,0,0,0,.66-0.16,2.81,2.81,0,0,0,.57-0.28,4.44,4.44,0,0,0,.53-0.41A0.36,0.36,0,0,1,168.7,27Z"/><path class="cls-3" d="M179.6,19.06v1.1h-4.8v3.32h3.89v1.06H174.8V28h4.8v1.1h-6.16v-10h6.16Z"/><path class="cls-3" d="M192.45,24.06a5.63,5.63,0,0,1-.36,2,4.54,4.54,0,0,1-1,1.58,4.47,4.47,0,0,1-1.56,1,5.41,5.41,0,0,1-2,.36h-3.74v-10h3.74a5.42,5.42,0,0,1,2,.36,4.46,4.46,0,0,1,1.56,1,4.58,4.58,0,0,1,1,1.58A5.63,5.63,0,0,1,192.45,24.06Zm-1.39,0a5,5,0,0,0-.25-1.65,3.47,3.47,0,0,0-.71-1.23,3,3,0,0,0-1.12-.77,3.86,3.86,0,0,0-1.46-.26h-2.38V28h2.38A3.85,3.85,0,0,0,189,27.7a3,3,0,0,0,1.12-.76,3.43,3.43,0,0,0,.71-1.22A5,5,0,0,0,191.06,24.06Z"/></g></svg>