<!-- Generator: Adobe Illustrator 17.1.0, SVG Export Plug-In  --><svg version="1.1"	 xmlns="http://www.w3.org/2000/svg" xmlns:xlink="http://www.w3.org/1999/xlink" xmlns:a="http://ns.adobe.com/AdobeSVGViewerExtensions/3.0/"	 x="0px" y="0px" width="261.2px" height="29.1px" viewBox="0 0 261.2 29.1" enable-background="new 0 0 261.2 29.1"	 xml:space="preserve"><defs></defs><path fill="none" stroke="#3B4F66" stroke-miterlimit="10" d="M0,0.5c3.5,0,3.5,28.1,7.1,28.1c3.5,0,3.5-28.1,7.1-28.1	c3.5,0,3.5,28.1,7.1,28.1c3.5,0,3.5-28.1,7.1-28.1c3.5,0,3.5,28.1,7.1,28.1c3.5,0,3.5-28.1,7.1-28.1c3.5,0,3.5,28.1,7.1,28.1	c3.5,0,3.5-28.1,7.1-28.1c3.5,0,3.5,28.1,7.1,28.1c3.5,0,3.5-28.1,7.1-28.1c3.5,0,3.5,28.1,7.1,28.1c3.5,0,3.5-28.1,7.1-28.1	c3.5,0,3.5,28.1,7.1,28.1c3.5,0,3.5-28.1,7.1-28.1c3.5,0,3.5,28.1,7.1,28.1c3.5,0,3.5-28.1,7.1-28.1c3.5,0,3.5,28.1,7.1,28.1	c3.5,0,3.5-28.1,7.1-28.1H127c3.5,0,3.5,28.1,7.1,28.1c3.5,0,3.5-28.1,7.1-28.1c3.5,0,3.5,28.1,7.1,28.1c3.5,0,3.5-28.1,7.1-28.1	c3.5,0,3.5,28.1,7.1,28.1c3.5,0,3.5-28.1,7.1-28.1c3.5,0,3.5,28.1,7.1,28.1c3.5,0,3.5-28.1,7.1-28.1c3.5,0,3.5,28.1,7.1,28.1	c3.5,0,3.5-28.1,7.1-28.1c3.5,0,3.5,28.1,7.1,28.1c3.5,0,3.5-28.1,7.1-28.1c3.5,0,3.5,28.1,7.1,28.1c3.5,0,3.5-28.1,7.1-28.1	c3.5,0,3.5,28.1,7.1,28.1c3.5,0,3.5-28.1,7.1-28.1c3.5,0,3.5,28.1,7.1,28.1c3.5,0,3.5-28.1,7.1-28.1c3.5,0,3.5,28.1,7.1,28.1"/></svg>