<?xml version="1.0" encoding="utf-8"?>
<!-- Generator: Adobe Illustrator 17.1.0, SVG Export Plug-In . SVG Version: 6.00 Build 0)  -->
<!DOCTYPE svg PUBLIC "-//W3C//DTD SVG 1.1//EN" "http://www.w3.org/Graphics/SVG/1.1/DTD/svg11.dtd">
<svg version="1.1" id="Layer_1" xmlns="http://www.w3.org/2000/svg" xmlns:xlink="http://www.w3.org/1999/xlink" x="0px" y="0px"
	 viewBox="0 0 21.1 60.3" enable-background="new 0 0 21.1 60.3" xml:space="preserve">
<g>
	<g>
		<rect x="9.1" y="2.8" fill="#C6986B" width="2" height="55"/>
		<g>
			<path fill="#C6986B" d="M0.5,16.9C1,17.2,1.6,17,1.9,16.5L10.6,3l8.6,13.5c0.3,0.5,1,0.6,1.4,0.3c0.5-0.3,0.6-1,0.3-1.4L11.4,0.5
				C11.3,0.2,10.9,0,10.6,0c-0.4,0-0.7,0.2-0.9,0.5L0.2,15.4C0.1,15.6,0,15.8,0,16C0,16.3,0.2,16.7,0.5,16.9z"/>
		</g>
		<g>
			<path fill="#C6986B" d="M0.5,43.4c0.5-0.3,1.1-0.2,1.4,0.3l8.6,13.5l8.6-13.5c0.3-0.5,1-0.6,1.4-0.3c0.5,0.3,0.6,1,0.3,1.4
				l-9.5,14.9c-0.2,0.3-0.5,0.5-0.9,0.5c-0.4,0-0.7-0.2-0.9-0.5L0.2,44.9C0.1,44.7,0,44.5,0,44.3C0,44,0.2,43.6,0.5,43.4z"/>
		</g>
	</g>
</g>
</svg>
