<?xml version="1.0" encoding="utf-8"?>
<!-- Generator: Adobe Illustrator 17.1.0, SVG Export Plug-In . SVG Version: 6.00 Build 0)  -->
<!DOCTYPE svg PUBLIC "-//W3C//DTD SVG 1.1//EN" "http://www.w3.org/Graphics/SVG/1.1/DTD/svg11.dtd">
<svg version="1.1" id="Layer_1" xmlns="http://www.w3.org/2000/svg" xmlns:xlink="http://www.w3.org/1999/xlink" x="0px" y="0px"
	 viewBox="0 0 57 57" enable-background="new 0 0 57 57" xml:space="preserve">
<g>
	<g>
		<path fill="#C6986B" d="M19.7,25H5.3C2.4,25,0,22.6,0,19.7V5.3C0,2.4,2.4,0,5.3,0h14.3C22.6,0,25,2.4,25,5.3v14.3
			C25,22.6,22.6,25,19.7,25z M5.3,2C3.5,2,2,3.5,2,5.3v14.3C2,21.5,3.5,23,5.3,23h14.3c1.8,0,3.3-1.5,3.3-3.3V5.3
			C23,3.5,21.5,2,19.7,2H5.3z"/>
		<path fill="#C6986B" d="M51.7,25H37.3c-2.9,0-5.3-2.4-5.3-5.3V5.3C32,2.4,34.4,0,37.3,0h14.3C54.6,0,57,2.4,57,5.3v14.3
			C57,22.6,54.6,25,51.7,25z M37.3,2C35.5,2,34,3.5,34,5.3v14.3c0,1.8,1.5,3.3,3.3,3.3h14.3c1.8,0,3.3-1.5,3.3-3.3V5.3
			C55,3.5,53.5,2,51.7,2H37.3z"/>
		<path fill="#C6986B" d="M19.7,57H5.3C2.4,57,0,54.6,0,51.7V37.3C0,34.4,2.4,32,5.3,32h14.3c2.9,0,5.3,2.4,5.3,5.3v14.3
			C25,54.6,22.6,57,19.7,57z M5.3,34C3.5,34,2,35.5,2,37.3v14.3C2,53.5,3.5,55,5.3,55h14.3c1.8,0,3.3-1.5,3.3-3.3V37.3
			c0-1.8-1.5-3.3-3.3-3.3H5.3z"/>
		<path fill="#C6986B" d="M51.7,57H37.3c-2.9,0-5.3-2.4-5.3-5.3V37.3c0-2.9,2.4-5.3,5.3-5.3h14.3c2.9,0,5.3,2.4,5.3,5.3v14.3
			C57,54.6,54.6,57,51.7,57z M37.3,34c-1.8,0-3.3,1.5-3.3,3.3v14.3c0,1.8,1.5,3.3,3.3,3.3h14.3c1.8,0,3.3-1.5,3.3-3.3V37.3
			c0-1.8-1.5-3.3-3.3-3.3H37.3z"/>
	</g>
</g>
</svg>
