<?xml version="1.0" encoding="utf-8"?>
<!-- Generator: Adobe Illustrator 17.1.0, SVG Export Plug-In . SVG Version: 6.00 Build 0)  -->
<!DOCTYPE svg PUBLIC "-//W3C//DTD SVG 1.1//EN" "http://www.w3.org/Graphics/SVG/1.1/DTD/svg11.dtd">
<svg version="1.1" id="Layer_1" xmlns="http://www.w3.org/2000/svg" xmlns:xlink="http://www.w3.org/1999/xlink" x="0px" y="0px"
	 viewBox="0 0 208 34.7" enable-background="new 0 0 208 34.7" xml:space="preserve">
<g opacity="0.9">
	<g>
		<g>
			<path fill="#FFFFFF" d="M58.2,22.2v-0.3c0.9-1.5,1-2.4,1-8.5h-8.7v4c0,2.8,0.1,3,1.3,3.2l0.4,0.1v1.4h-5.3v-0.3
				c0.9-1.5,1-2.3,1-8.7V8.5c0-3.1-0.2-3.3-1.5-3.4l-0.5,0V3.6h5.7v0.3c-0.8,1.3-1,2-1,7.8h8.7V8.5c0-3-0.2-3.2-1.4-3.4l-0.3-0.1
				V3.6h5.4v0.3c-0.8,1.4-1,2.1-1,8.8v4.9c0,2.8,0.2,3.1,1.4,3.2l0.5,0v1.4H58.2z"/>
			<path fill="#FFFFFF" d="M77.8,22.2h-11V22c0.8-1.3,0.9-2.1,0.9-7.8V10c0-2.8-0.2-2.9-1.4-3l-0.4,0V5.7h11.9
				c0.2,0.7,0.5,2.5,0.8,3.4h-1.2c-0.7-1.3-1.4-1.7-4.9-1.7c-1.1,0-1.5,0.1-2,0.1c-0.2,1.3-0.3,3.1-0.3,5.4h2.9c1.7,0,2-0.3,2.2-0.9
				h0.9c0.1,0.9,0.4,3.1,0.5,3.8h-1.1c-0.4-1.1-0.9-1.4-3.2-1.4h-2.3V17c0,2.6,0.1,3.2,0.4,3.4c0.2,0.2,0.8,0.3,2.7,0.3
				c2.5,0,3.5-0.7,4.2-1.9h1.2C78.4,19.7,78.1,21.2,77.8,22.2z"/>
			<path fill="#FFFFFF" d="M91.9,22.2H81.7V22c0.8-1.3,0.9-2.1,0.9-7.8V10c0-2.8-0.2-2.9-1.4-3l-0.4,0V5.7h5V6
				C85.1,7.2,85,7.8,85,13.7v4.3c0,2.5,1.1,2.6,2.2,2.6h0.6c2.4,0,3-0.7,3.8-2h1.3C92.6,19.4,92.1,21.5,91.9,22.2z"/>
			<path fill="#FFFFFF" d="M104.6,22.2H94.4V22c0.8-1.3,0.9-2.1,0.9-7.8V10c0-2.8-0.2-2.9-1.4-3l-0.4,0V5.7h5V6
				c-0.7,1.2-0.9,1.8-0.9,7.8v4.3c0,2.5,1.1,2.6,2.2,2.6h0.6c2.4,0,3-0.7,3.8-2h1.3C105.3,19.4,104.8,21.5,104.6,22.2z"/>
			<path fill="#FFFFFF" d="M118,22.2h-11V22c0.8-1.3,0.9-2.1,0.9-7.8V10c0-2.8-0.2-2.9-1.4-3l-0.4,0V5.7h11.9
				c0.2,0.7,0.5,2.5,0.8,3.4h-1.2c-0.7-1.3-1.4-1.7-4.9-1.7c-1.1,0-1.5,0.1-2,0.1c-0.2,1.3-0.3,3.1-0.3,5.4h2.9c1.7,0,2-0.3,2.2-0.9
				h0.9c0.1,0.9,0.4,3.1,0.5,3.8h-1.1c-0.4-1.1-0.9-1.4-3.2-1.4h-2.3V17c0,2.6,0.1,3.2,0.4,3.4c0.2,0.2,0.8,0.3,2.7,0.3
				c2.5,0,3.5-0.7,4.2-1.9h1.2C118.6,19.7,118.2,21.2,118,22.2z"/>
			<path fill="#FFFFFF" d="M131.3,22.2c-0.4-0.7-1.5-2.3-2.4-3.7c-1.5-2.2-2.2-3.2-3-3.5c-0.2-0.1-0.6-0.1-0.9-0.1v2.7
				c0,3.1,0.2,3.2,1.1,3.4v1.3H122V22c0.5-1.4,0.6-2.7,0.6-6.8V10c0-2.8-0.2-2.9-1.4-3l-0.4,0V5.7h7.4c2.6,0,5.1,1.6,5.1,4.2
				c0,2.5-1.6,5-4.8,5.1c0.7,0.6,1.7,1.6,2.4,2.7c1.9,2.9,2.2,3,3.8,3.2v1.3H131.3z M130.7,10.3c0-1.9-1-3-3.6-3
				c-0.7,0-1.4,0.1-1.9,0.1c-0.1,0.8-0.1,2-0.1,2.8v3c0.6,0.1,1.5,0.1,2.3,0.1C129.9,13.3,130.7,12.2,130.7,10.3L130.7,10.3z"/>
			<path fill="#FFFFFF" d="M152.4,22.2V22c0.4-1.4,0.5-2.3,0.5-7.5V8.8l-4.5,10.6c-0.5,1.3-0.9,1.9-1.3,2.8h-0.5
				c-0.7,0-1.2-0.3-1.9-1.8l-3-7.1c-1-2.2-1.7-3.8-2.1-4.7v10.3c0,1.5,0.2,1.9,1,1.9l0.8,0.1v1.3h-4.5V22c0.6-1,0.7-2.2,0.8-4.5
				l0.2-5.1c0-0.7,0.1-1.9,0.1-2.3c0-2.8-0.2-2.9-1.4-3l-0.5,0V5.7h3.2c1.2,0,1.7,0.1,2.1,1.1l5.4,12.2l4.3-10
				c0.5-1.2,1-2.4,1.3-3.2h3.8v0.2c-0.7,1.2-0.9,2-0.9,7.9v5.1c0,1.4,0.4,1.9,1,1.9L157,21v1.3H152.4z"/>
			<path fill="#FFFFFF" d="M170.1,22.2c0,0,0.1-0.5,0.2-1c0-0.7-0.1-1.1-0.3-1.7l-0.8-2h-6.8l-0.7,1.9c-0.2,0.6-0.3,0.7-0.3,0.9
				c0,0.5,0.2,0.7,1.3,0.7v1.3h-4.4v-0.5c0.5-0.7,0.9-1.3,1.8-3.6l3.8-9.7c0.1-0.2,0.2-0.5,0.1-0.8c0-0.4-0.2-0.6-0.9-0.6L162.4,7
				V5.7h4.8c0.2,0.4,0.5,1.2,0.9,2.3l3.8,10c1,2.7,1.3,2.9,2.6,3v1.3H170.1z M167,11.5c-0.5-1.4-1-2.7-1.1-3.4
				c-0.2,0.7-0.7,2.1-1.2,3.4l-1.7,4.5h5.7L167,11.5z"/>
			<path fill="#FFFFFF" d="M189.7,13.7v4.3c0,1.3,0,2.8,0.1,4.2h-0.7c-0.5,0-0.9-0.5-1.3-1l-8.7-11.2c0,0.9,0,2,0,3.1v3.4
				c0,3.6,0.1,4.2,1.3,4.3l0.7,0.1v1.3h-4.8V22c0.8-1.3,0.9-2.1,0.9-7.8V10c0-2.8-0.2-2.9-1.4-3l-0.5,0V5.7h2.4c0.9,0,1,0.1,1.7,1.1
				l8.2,10.5c0.1-0.6,0.1-1.9,0.1-3.2v-3.8c0-2.6-0.2-3.2-1.4-3.3L185.7,7V5.7h4.8V6C189.8,7.2,189.7,7.8,189.7,13.7z"/>
			<path fill="#FFFFFF" d="M207.1,13.7v4.3c0,1.3,0,2.8,0.1,4.2h-0.7c-0.5,0-0.9-0.5-1.3-1l-8.7-11.2c0,0.9,0,2,0,3.1v3.4
				c0,3.6,0.1,4.2,1.3,4.3l0.7,0.1v1.3h-4.8V22c0.8-1.3,0.9-2.1,0.9-7.8V10c0-2.8-0.2-2.9-1.4-3l-0.5,0V5.7h2.4c0.9,0,1,0.1,1.7,1.1
				l8.2,10.5c0.1-0.6,0.1-1.9,0.1-3.2v-3.8c0-2.6-0.2-3.2-1.4-3.3L203.1,7V5.7h4.8V6C207.2,7.2,207.1,7.8,207.1,13.7z"/>
		</g>
		<g>
			<path fill="#FFFFFF" d="M51.6,30.6l-0.2-1c-0.4-0.2-1-0.2-1.4-0.2c-0.5,0-1.1,0.1-1.1,0.6c0,0.2,0.1,0.4,0.3,0.5l2.7,2.1
				c0.1-0.2,0.1-0.5,0.1-0.9l-0.7-0.2v-0.5h2.4v0.5l-0.6,0.2c0,0.6-0.1,1.1-0.4,1.5l0.5,0.4c0.3,0.3,0.6,0.3,0.8,0.3
				c0.1,0,0.2,0,0.3,0l0.2,0.4c-0.3,0.2-0.6,0.3-1,0.3c-0.4,0-0.9-0.2-1.1-0.3L52.1,34c-0.6,0.5-1.3,0.7-2.2,0.7
				c-1.4,0-2.9-0.6-2.9-2.1c0-0.8,0.4-1.3,1.1-1.7c-0.3-0.2-0.4-0.5-0.4-0.9c0-1.2,1.3-1.4,2.2-1.4c1,0,1.7,0.1,2.5,0.5l-0.2,1.5
				H51.6z M48.6,31.3c-0.4,0.3-0.5,0.7-0.5,1.2c0,1,0.7,1.5,1.7,1.5c0.5,0,1.1-0.1,1.5-0.5L48.6,31.3z"/>
			<path fill="#FFFFFF" d="M63,30.8l-0.1-1c-0.4-0.3-1-0.4-1.5-0.4c-1.4,0-2.4,0.8-2.4,2.3c0,1.5,1,2.3,2.4,2.3
				c0.6,0,1.1-0.1,1.5-0.4l0.1-1.1h0.7l0.1,1.8c-0.8,0.4-1.7,0.5-2.6,0.5c-2.1,0-3.4-1.3-3.4-3.1c0-1.7,1.3-3.1,3.4-3.1
				c0.9,0,1.8,0.1,2.6,0.5l-0.1,1.8L63,30.8z"/>
			<path fill="#FFFFFF" d="M74.6,31.7c0,1.8-1.3,3.1-3.4,3.1s-3.4-1.2-3.4-3.1c0-1.8,1.3-3.1,3.4-3.1S74.6,29.9,74.6,31.7z
				 M68.9,31.7c0,1.5,0.9,2.3,2.2,2.3c1.4,0,2.2-0.8,2.2-2.3c0-1.5-0.9-2.3-2.2-2.3C69.8,29.4,68.9,30.2,68.9,31.7z"/>
			<path fill="#FFFFFF" d="M80.8,28.9l2,3.8h0.1l1.9-3.8h2.6l0,0.6l-0.9,0.2v4.1l0.9,0.2l0,0.6h-2.9l0-0.6l1-0.2v-4h-0.1l-2.4,4.7
				l-0.5,0.1l-2.5-4.8h-0.1l0.1,2.1v2l0.8,0.2l0,0.6h-2.5l0-0.6l0.9-0.2v-4.1l-0.9-0.2l0-0.6H80.8z"/>
			<path fill="#FFFFFF" d="M91.2,29c1.2-0.2,2.3-0.3,3.5-0.3c1.6,0,3.1,0.3,3.1,1.9c0,1.3-1,2-2.6,2c-0.7,0-1.2-0.1-1.9-0.2v1.3
				l0.9,0.2l0,0.6h-2.9l0-0.6l1-0.2v-4.1l-0.9-0.1L91.2,29z M93.3,31.7c0.5,0.1,1,0.1,1.6,0.1c1.1,0,1.7-0.4,1.7-1.3
				c0-1-1-1.1-1.9-1.1c-0.4,0-0.9,0-1.5,0.1V31.7z"/>
			<path fill="#FFFFFF" d="M105,28.7l2.5,5.1l0.8,0.2l0,0.6h-2.9l0-0.6l0.9-0.2l-0.4-0.8h-3l-0.4,0.8l0.9,0.2l0,0.6h-2.7l0-0.6
				l0.9-0.2l2-3.6l0.5-1.1L105,28.7L105,28.7z M103.1,32.2h2.3l-1.1-2.3h-0.1L103.1,32.2z"/>
			<path fill="#FFFFFF" d="M114.4,28.9l3.3,4.1h0.1v-3.3l-1-0.2l0-0.6h2.6l0,0.6l-0.7,0.2v4.7l-1,0.3l-4-4.8h-0.1l0.1,2v1.9l1,0.2
				l0,0.6h-2.7l0-0.6l0.9-0.2v-4.1l-0.9-0.2l0-0.6H114.4z"/>
			<path fill="#FFFFFF" d="M126.3,28.9l0,0.6l-0.8,0.2l1.7,2.4h0.1l1.6-2.3l-1-0.2l0-0.6h2.9l0,0.6l-0.9,0.2l-2.2,3.1v1l0.9,0.2
				l0,0.6h-2.8l0-0.6l0.9-0.2v-1l-2.5-3.1l-0.9-0.2l0-0.6H126.3z"/>
		</g>
		<g>
			<path fill="#FFFFFF" d="M36.1,16.8c1.7-1,2.8-2.9,2.8-4.9c0-2.3-1.8-3.4-3.4-4.3c-0.8-0.5-1.6-0.9-2.2-1.5
				c-0.6-0.6-1-1.3-1.4-2.2C31,2.1,29.9,0,27,0c-3.2,0-5.8,2.6-5.8,5.8v4.5h0V16h-3.6V5.8C17.6,2.6,15,0,11.8,0
				C9.5,0,8.5,1.8,7.5,3.4C7.1,4.2,6.6,5,6,5.6C5.4,6.1,4.6,6.5,3.8,7C2.1,7.9,0,9,0,11.8c0,2.1,1.1,3.9,2.8,4.9
				c-1.7,1-2.8,2.9-2.8,4.9C0,24,1.8,25.1,3.4,26C4.2,26.5,5,27,5.6,27.6c0.6,0.6,1,1.4,1.4,2.2c0.9,1.7,2,3.8,4.9,3.8
				c3.2,0,5.8-2.6,5.8-5.8v-4.5v-5.5h3.6v10c0,3.2,2.6,5.8,5.8,5.8c2.3,0,3.4-1.8,4.3-3.4c0.5-0.8,0.9-1.6,1.5-2.2
				c0.6-0.6,1.3-1,2.2-1.4c1.7-0.9,3.8-2,3.8-4.9C38.9,19.6,37.8,17.8,36.1,16.8z M15.9,10.7v17c0,2.3-1.8,4.2-4.1,4.2
				c-1.7,0-2.4-1.1-3.3-2.9c-0.5-0.9-1-1.9-1.7-2.6c-0.8-0.8-1.7-1.3-2.5-1.8c-1.8-1.1-2.8-1.8-2.5-3.4c0.4-2,2.3-3.4,4.4-3.4H9h2.6
				v-1.7H5.9c-2.3,0-4.2-1.8-4.2-4.1c0-1.7,1.1-2.4,2.9-3.3c0.9-0.5,1.9-1,2.6-1.7C8,6.1,8.5,5.2,9,4.3c1.1-1.8,1.8-2.8,3.4-2.5
				c2,0.4,3.4,2.3,3.4,4.4V10.7z M34.2,25c-0.9,0.5-1.9,1-2.6,1.7c-0.8,0.8-1.3,1.7-1.8,2.5c-1.1,1.8-1.8,2.8-3.5,2.5
				c-2-0.4-3.4-2.3-3.4-4.4v-4.5v-17c0-2.3,1.8-4.2,4.1-4.2c1.7,0,2.4,1.1,3.3,2.9c0.5,0.9,1,1.9,1.7,2.6C32.8,8,33.7,8.5,34.6,9
				c1.8,1.1,2.8,1.8,2.5,3.5c-0.4,2-2.3,3.4-4.4,3.4H27l0,0v1.7l0,0h6c2.3,0,4.2,1.8,4.2,4.1C37.1,23.5,36,24.1,34.2,25z"/>
		</g>
	</g>
</g>
</svg>
