<?xml version="1.0" encoding="utf-8"?>
<!-- Generator: Adobe Illustrator 17.1.0, SVG Export Plug-In . SVG Version: 6.00 Build 0)  -->
<!DOCTYPE svg PUBLIC "-//W3C//DTD SVG 1.1//EN" "http://www.w3.org/Graphics/SVG/1.1/DTD/svg11.dtd">
<svg version="1.1" id="Layer_1" xmlns="http://www.w3.org/2000/svg" xmlns:xlink="http://www.w3.org/1999/xlink" x="0px" y="0px"
	 viewBox="0 0 134.2 29.4" enable-background="new 0 0 134.2 29.4" xml:space="preserve">
<path fill="none" stroke="#3B4F66" stroke-width="1.2781" stroke-miterlimit="10" d="M0,0.6c3.5,0,3.5,28.1,7.1,28.1
	c3.5,0,3.5-28.1,7.1-28.1c3.5,0,3.5,28.1,7.1,28.1c3.5,0,3.5-28.1,7.1-28.1c3.5,0,3.5,28.1,7.1,28.1c3.5,0,3.5-28.1,7.1-28.1
	c3.5,0,3.5,28.1,7.1,28.1c3.5,0,3.5-28.1,7.1-28.1c3.5,0,3.5,28.1,7.1,28.1c3.5,0,3.5-28.1,7.1-28.1c3.5,0,3.5,28.1,7.1,28.1
	c3.5,0,3.5-28.1,7.1-28.1c3.5,0,3.5,28.1,7.1,28.1c3.5,0,3.5-28.1,7.1-28.1c3.5,0,3.5,28.1,7.1,28.1c3.5,0,3.5-28.1,7.1-28.1
	c3.5,0,3.5,28.1,7.1,28.1c3.5,0,3.5-28.1,7.1-28.1c3.5,0,3.5,28.1,7.1,28.1"/>
</svg>
